<?xml version="1.0" encoding="UTF-8"?>
<svg version="1.1" xmlns="http://www.w3.org/2000/svg" width="666" height="375">
<path d="M0 0 C3.0625 2.5625 3.0625 2.5625 5 5 C5.495 5.495 5.495 5.495 6 6 C6.185625 4.5459375 6.185625 4.5459375 6.375 3.0625 C6.58125 2.051875 6.7875 1.04125 7 0 C11.56122049 -2.28061024 18.08029738 -1.4227861 22.9375 -0.25 C26.35052338 1.14307077 27.53087227 1.62964815 29 5 C29.40728797 9.24194268 29.35196416 12.94410752 28 17 C28.4640625 17.8353125 28.4640625 17.8353125 28.9375 18.6875 C30.53065326 22.15495121 30.12648259 25.2055224 30 29 C27.69 29 25.38 29 23 29 C22.505 25.535 22.505 25.535 22 22 C20.35 21.67 18.7 21.34 17 21 C15.0549 23.91765 14.54723683 25.62537285 14 29 C11.69 29 9.38 29 7 29 C6.505 25.535 6.505 25.535 6 22 C5.401875 22.78375 4.80375 23.5675 4.1875 24.375 C2 27 2 27 -1 29 C-4.21484375 29.265625 -4.21484375 29.265625 -7.9375 29.25 C-9.16339844 29.25515625 -10.38929688 29.2603125 -11.65234375 29.265625 C-16.39807044 28.88906792 -18.17047696 27.96777688 -21.25 24.375 C-22.11625 23.199375 -22.11625 23.199375 -23 22 C-23.33 24.31 -23.66 26.62 -24 29 C-26.31 29 -28.62 29 -31 29 C-31.495 22.565 -31.495 22.565 -32 16 C-32.45375 16.94875 -32.9075 17.8975 -33.375 18.875 C-35 22 -35 22 -37 24 C-40.4375 24 -40.4375 24 -44 23 C-45.9375 19.9375 -45.9375 19.9375 -47 17 C-47.06058594 17.78246094 -47.12117187 18.56492188 -47.18359375 19.37109375 C-47.26738281 20.38300781 -47.35117188 21.39492187 -47.4375 22.4375 C-47.51871094 23.44683594 -47.59992188 24.45617187 -47.68359375 25.49609375 C-48 28 -48 28 -49 29 C-51.33297433 29.04092937 -53.66705225 29.04241723 -56 29 C-56.02465746 24.8882744 -56.04283959 20.77657722 -56.05493164 16.66479492 C-56.0599708 15.26504772 -56.06680216 13.8653058 -56.07543945 12.46557617 C-56.0875232 10.45754223 -56.09269807 8.44947043 -56.09765625 6.44140625 C-56.10289307 5.23170166 -56.10812988 4.02199707 -56.11352539 2.77563477 C-56 0 -56 0 -55 -1 C-51.8125 -1.625 -51.8125 -1.625 -48 -1 C-44.49653705 2.78881287 -42.25034765 7.39365458 -40 12 C-39.51789063 11.22914062 -39.03578125 10.45828125 -38.5390625 9.6640625 C-37.59160156 8.15972656 -37.59160156 8.15972656 -36.625 6.625 C-35.68527344 5.12839844 -35.68527344 5.12839844 -34.7265625 3.6015625 C-33 1 -33 1 -31 -1 C-27.9375 -1.1875 -27.9375 -1.1875 -25 -1 C-23.03177114 0.96822886 -23.33751619 4.34808709 -23 7 C-22.34 6.071875 -21.68 5.14375 -21 4.1875 C-15.29789006 -2.53683693 -7.98889045 -3.08848858 0 0 Z M-13 7 C-13 7.66 -13 8.32 -13 9 C-13.66 9 -14.32 9 -15 9 C-16.39261878 11.67221575 -16.39261878 11.67221575 -17 15 C-15.53215528 17.68261277 -14.1638224 19.8361776 -12 22 C-6.82633017 22.47960272 -6.82633017 22.47960272 -2.0625 20.9375 C-0.46050052 18.01620682 -0.23535026 15.29490366 0 12 C-0.72659474 8.87153247 -0.72659474 8.87153247 -3.25 7.3125 C-6.80765645 5.61452761 -9.42470776 5.21235388 -13 7 Z M14 7 C14 9.64 14 12.28 14 15 C18.89781025 13.53063637 18.89781025 13.53063637 22 9.875 C22 9.25625 22 8.6375 22 8 C20.81575674 6.58422523 20.81575674 6.58422523 17.4375 6.9375 C15.7359375 6.9684375 15.7359375 6.9684375 14 7 Z " fill="#2092AD" transform="translate(280,116)"/>
<path d="M0 0 C5.21341042 0.03106919 10.45446862 0.32946862 14.375 4.25 C14.705 3.26 15.035 2.27 15.375 1.25 C17.7010857 0.86936779 20.03555264 0.53730055 22.375 0.25 C24.25324891 2.12824891 23.76602397 5.28935276 23.9375 7.8125 C24.06318359 9.60880859 24.06318359 9.60880859 24.19140625 11.44140625 C24.25199219 12.36824219 24.31257813 13.29507813 24.375 14.25 C24.96796875 13.92257813 25.5609375 13.59515625 26.171875 13.2578125 C28.9990243 11.96454208 31.30268711 12.11034941 34.375 12.25 C34.375 8.62 34.375 4.99 34.375 1.25 C39.375 0.25 39.375 0.25 41.375 1.25 C42 4.3125 42 4.3125 42.375 7.25 C43.096875 6.445625 43.81875 5.64125 44.5625 4.8125 C47.40015689 2.22707928 48.64666147 1.56957187 52.375 1.25 C54.375 4.25 54.375 4.25 54.375 8.25 C52.725 8.91 51.075 9.57 49.375 10.25 C49.16139174 13.88134037 49.19708067 16.72736198 50.375 20.1875 C52.64742993 22.53094336 53.23748564 22.63947531 56.375 22.8125 C59.19590501 22.62098902 60.10090225 22.47988844 62.3125 20.625 C63.55903504 17.83862755 64.03129723 15.27458441 64.375 12.25 C66.685 11.59 68.995 10.93 71.375 10.25 C72.375 11.25 72.375 11.25 72.5078125 13.2109375 C72.50523437 14.00757813 72.50265625 14.80421875 72.5 15.625 C72.50386719 16.81222656 72.50386719 16.81222656 72.5078125 18.0234375 C72.375 20.25 72.375 20.25 71.375 23.25 C70.715 23.25 70.055 23.25 69.375 23.25 C69.00375 24.1471875 69.00375 24.1471875 68.625 25.0625 C67.131776 27.675642 65.95868587 28.70152834 63.375 30.25 C57.90277749 31.0347761 51.50683257 31.54674682 46.6875 28.4375 C44.375 26.25 44.375 26.25 42.375 23.25 C42.045 25.56 41.715 27.87 41.375 30.25 C39.065 30.25 36.755 30.25 34.375 30.25 C34.375 26.62 34.375 22.99 34.375 19.25 C28.54301904 20.43420716 28.54301904 20.43420716 24.375 24.25 C23.6480774 27.35839021 23.6480774 27.35839021 23.375 30.25 C20.735 30.25 18.095 30.25 15.375 30.25 C14.88 23.815 14.88 23.815 14.375 17.25 C12.9725 18.19875 11.57 19.1475 10.125 20.125 C7.82242377 21.6826251 5.65363542 23.1222921 3.125 24.28125 C2.5475 24.6009375 1.97 24.920625 1.375 25.25 C0.56328772 27.80519921 0.56328772 27.80519921 0.375 30.25 C-1.935 30.25 -4.245 30.25 -6.625 30.25 C-6.64965746 26.1382744 -6.66783959 22.02657722 -6.67993164 17.91479492 C-6.6849708 16.51504772 -6.69180216 15.1153058 -6.70043945 13.71557617 C-6.7125232 11.70754223 -6.71769807 9.69947043 -6.72265625 7.69140625 C-6.72789307 6.48170166 -6.73312988 5.27199707 -6.73852539 4.02563477 C-6.53968753 -0.83584412 -4.35563179 0.06484812 0 0 Z M0.375 8.25 C0.375 10.89 0.375 13.53 0.375 16.25 C4.71639908 15.22395129 4.71639908 15.22395129 7.8125 12.25 C8.6307558 10.20095094 8.6307558 10.20095094 7.375 8.25 C5.065 8.25 2.755 8.25 0.375 8.25 Z " fill="#1693B2" transform="translate(317.625,114.75)"/>
<path d="M0 0 C3.41302338 1.39307077 4.59337227 1.87964815 6.0625 5.25 C6.46978797 9.49194268 6.41446416 13.19410752 5.0625 17.25 C5.371875 17.806875 5.68125 18.36375 6 18.9375 C7.59315326 22.40495121 7.18898259 25.4555224 7.0625 29.25 C4.7525 29.25 2.4425 29.25 0.0625 29.25 C-0.4325 25.785 -0.4325 25.785 -0.9375 22.25 C-2.5875 21.92 -4.2375 21.59 -5.9375 21.25 C-7.8826 24.16765 -8.39026317 25.87537285 -8.9375 29.25 C-11.2475 29.25 -13.5575 29.25 -15.9375 29.25 C-16.2675 26.94 -16.5975 24.63 -16.9375 22.25 C-17.535625 23.03375 -18.13375 23.8175 -18.75 24.625 C-20.9375 27.25 -20.9375 27.25 -23.9375 29.25 C-27.15234375 29.515625 -27.15234375 29.515625 -30.875 29.5 C-32.10089844 29.50515625 -33.32679688 29.5103125 -34.58984375 29.515625 C-39.33557044 29.13906792 -41.10797696 28.21777688 -44.1875 24.625 C-46.76110089 19.66162685 -46.64313893 15.89614598 -45.1875 10.4375 C-43.77364693 7.96325712 -42.32824438 6.7641381 -39.9375 5.25 C-38.9375 8.25 -38.9375 8.25 -39.125 11.5625 C-38.89436505 16.09832066 -38.10908999 17.99912026 -34.9375 21.25 C-30.72680314 22.14736163 -27.06426009 21.28169002 -22.9375 20.25 C-22.6075 15.96 -22.2775 11.67 -21.9375 7.25 C-19.4625 7.745 -19.4625 7.745 -16.9375 8.25 C-16.6075 9.24 -16.2775 10.23 -15.9375 11.25 C-15.9375 7.62 -15.9375 3.99 -15.9375 0.25 C-11.37627951 -2.03061024 -4.85720262 -1.1727861 0 0 Z M-8.9375 7.25 C-8.9375 9.89 -8.9375 12.53 -8.9375 15.25 C-4.03968975 13.78063637 -4.03968975 13.78063637 -0.9375 10.125 C-0.9375 9.50625 -0.9375 8.8875 -0.9375 8.25 C-2.12174326 6.83422523 -2.12174326 6.83422523 -5.5 7.1875 C-7.2015625 7.2184375 -7.2015625 7.2184375 -8.9375 7.25 Z " fill="#2D9AB5" transform="translate(302.9375,115.75)"/>
<path d="M0 0 C1.875 1.5 1.875 1.5 3 3 C3.66 2.01 4.32 1.02 5 0 C6.32 0 7.64 0 9 0 C9 1.65 9 3.3 9 5 C10.423125 4.938125 10.423125 4.938125 11.875 4.875 C15 5 15 5 17 7 C17.99 6.34 18.98 5.68 20 5 C26.33333333 4.66666667 26.33333333 4.66666667 29 6 C29 10.29 29 14.58 29 19 C16.75 19 16.75 19 12 18 C12 15.03 12 12.06 12 9 C11.01 9.495 11.01 9.495 10 10 C9.53348793 12.12576782 9.53348793 12.12576782 9.375 14.5625 C9.30023438 15.38878906 9.22546875 16.21507812 9.1484375 17.06640625 C9.09945313 17.70449219 9.05046875 18.34257812 9 19 C6.5625 18.625 6.5625 18.625 4 18 C3.67 17.34 3.34 16.68 3 16 C2.4740625 16.7425 2.4740625 16.7425 1.9375 17.5 C-1.06034694 19.82091376 -3.32644233 19.45113866 -7 19 C-9.36497439 17.13291495 -10.66030715 15.67938569 -12 13 C-12.59873168 7.73116124 -11.25400021 5.1153532 -8 1 C-5.20129973 -0.39935013 -3.09501208 -0.25265405 0 0 Z M-5 6 C-6.35618499 7.12534105 -6.35618499 7.12534105 -6.0625 10.0625 C-6.041875 11.031875 -6.02125 12.00125 -6 13 C-2.18510326 14.46726798 0.29011622 13.43336419 4 12 C4 10.68 4 9.36 4 8 C2.35 8 0.7 8 -1 8 C-1 7.34 -1 6.68 -1 6 C-2.32 6 -3.64 6 -5 6 Z " fill="#606564" transform="translate(312,152)"/>
<path d="M0 0 C2 3 2 3 2 7 C0.35 7.66 -1.3 8.32 -3 9 C-3.21360826 12.63134037 -3.17791933 15.47736198 -2 18.9375 C0.27242993 21.28094336 0.86248564 21.38947531 4 21.5625 C6.82090501 21.37098902 7.72590225 21.22988844 9.9375 19.375 C11.18403504 16.58862755 11.65629723 14.02458441 12 11 C14.31 10.34 16.62 9.68 19 9 C20 10 20 10 20.1328125 11.9609375 C20.13023437 12.75757813 20.12765625 13.55421875 20.125 14.375 C20.12886719 15.56222656 20.12886719 15.56222656 20.1328125 16.7734375 C20 19 20 19 19 22 C18.34 22 17.68 22 17 22 C16.7525 22.598125 16.505 23.19625 16.25 23.8125 C14.756776 26.425642 13.58368587 27.45152834 11 29 C5.58451631 29.77663913 -0.83913805 30.30763402 -5.625 27.25 C-10.94225722 22.21259843 -10.94225722 22.21259843 -11.125 18.375 C-11.08375 17.59125 -11.0425 16.8075 -11 16 C-11.33 15.34 -11.66 14.68 -12 14 C-11.34 13.67 -10.68 13.34 -10 13 C-10.2475 12.29875 -10.495 11.5975 -10.75 10.875 C-11.10462146 6.79685319 -9.50193977 5.12742472 -7 2 C-4 0 -4 0 0 0 Z " fill="#1D9AB7" transform="translate(370,116)"/>
<path d="M0 0 C4.29 0 8.58 0 13 0 C13 1.65 13 3.3 13 5 C14.670625 4.9690625 14.670625 4.9690625 16.375 4.9375 C20 5 20 5 22 6 C22 6.66 22 7.32 22 8 C22.66 8 23.32 8 24 8 C24 7.34 24 6.68 24 6 C26.77100394 4.61449803 28.9334706 4.8122533 32 5 C32.99 5.66 33.98 6.32 35 7 C35 8.32 35 9.64 35 11 C33.02 10.67 31.04 10.34 29 10 C28.67 10.99 28.34 11.98 28 13 C31.465 12.505 31.465 12.505 35 12 C34.25 16.75 34.25 16.75 32 19 C28.04841529 19.34361606 25.39464446 19.08901197 22 17 C21.34 17.66 20.68 18.32 20 19 C15.94738713 19.34490322 14.45245824 19.30163882 11 17 C10.70703125 14.6171875 10.70703125 14.6171875 10.8125 11.875 C10.83957031 10.96492187 10.86664063 10.05484375 10.89453125 9.1171875 C10.92933594 8.41851562 10.96414063 7.71984375 11 7 C10.34 6.67 9.68 6.34 9 6 C9 10.29 9 14.58 9 19 C7.35 19 5.7 19 4 19 C4 14.71 4 10.42 4 6 C2.35 5.67 0.7 5.34 -1 5 C-0.67 3.35 -0.34 1.7 0 0 Z " fill="#ABADAD" transform="translate(366,152)"/>
<path d="M0 0 C2.00720923 0.28674418 4.0085944 0.61866701 6 1 C6 4.96 6 8.92 6 13 C6.66 13.33 7.32 13.66 8 14 C7.67 14.99 7.34 15.98 7 17 C6.77548542 19.22574335 6.59217122 21.45581519 6.4375 23.6875 C6.35371094 24.86699219 6.26992188 26.04648438 6.18359375 27.26171875 C6.09271484 28.61716797 6.09271484 28.61716797 6 30 C3.69 30 1.38 30 -1 30 C-1 26.37 -1 22.74 -1 19 C-5.30840713 20.07710178 -8.63576723 21.03947516 -12 24 C-12 23.01 -12 22.02 -12 21 C-12.66 21 -13.32 21 -14 21 C-14.33 23.31 -14.66 25.62 -15 28 C-15.99 28 -16.98 28 -18 28 C-18 19.42 -18 10.84 -18 2 C-15.525 2.495 -15.525 2.495 -13 3 C-12.67 7.29 -12.34 11.58 -12 16 C-10.35 15.67 -8.7 15.34 -7 15 C-7 14.01 -7 13.02 -7 12 C-5.02 12 -3.04 12 -1 12 C-1.01160156 11.21753906 -1.02320313 10.43507813 -1.03515625 9.62890625 C-1.04417969 8.61699219 -1.05320312 7.60507813 -1.0625 6.5625 C-1.07410156 5.55316406 -1.08570313 4.54382813 -1.09765625 3.50390625 C-1 1 -1 1 0 0 Z " fill="#2C9DB9" transform="translate(353,115)"/>
<path d="M0 0 C2 1.1875 2 1.1875 3 3 C2.625 5.625 2.625 5.625 2 8 C2.33 8.33 2.66 8.66 3 9 C3.66 7.68 4.32 6.36 5 5 C6.32 5.33 7.64 5.66 9 6 C9.33 8.31 9.66 10.62 10 13 C10.33 13 10.66 13 11 13 C11.33 10.69 11.66 8.38 12 6 C13.9375 5.4375 13.9375 5.4375 16 5 C17 6 17 6 17.1328125 8.6875 C17.13023437 9.780625 17.12765625 10.87375 17.125 12 C17.12886719 13.6396875 17.12886719 13.6396875 17.1328125 15.3125 C17 18 17 18 16 19 C14.0390625 19.203125 14.0390625 19.203125 11.625 19.25 C10.83351562 19.27578125 10.04203125 19.3015625 9.2265625 19.328125 C6.52975122 18.93070018 5.69270985 18.07493465 4 16 C3.59910156 16.48855469 3.19820312 16.97710937 2.78515625 17.48046875 C0.52792075 19.40183551 -0.63792038 19.37513515 -3.5625 19.3125 C-4.34753906 19.30863281 -5.13257813 19.30476563 -5.94140625 19.30078125 C-8 19 -8 19 -10 17 C-10.125 14.5 -10.125 14.5 -10 12 C-10 10.70785499 -10.03290031 9.41510564 -10.10546875 8.125 C-10.13253906 7.42375 -10.15960938 6.7225 -10.1875 6 C-10.22230469 5.29875 -10.25710937 4.5975 -10.29296875 3.875 C-10.19628906 3.25625 -10.09960938 2.6375 -10 2 C-6.30513897 -0.46324069 -4.36706908 -0.38991688 0 0 Z M-6 12 C-5.67 12.66 -5.34 13.32 -5 14 C-4.01 13.67 -3.02 13.34 -2 13 C-3.32 12.67 -4.64 12.34 -6 12 Z " fill="#8A8D8D" transform="translate(232,152)"/>
<path d="M0 0 C1.20462891 -0.02126953 1.20462891 -0.02126953 2.43359375 -0.04296875 C4.5625 0.1875 4.5625 0.1875 6.5625 2.1875 C7.2225 1.5275 7.8825 0.8675 8.5625 0.1875 C10.65625 -0.04296875 10.65625 -0.04296875 13.0625 0 C14.25359375 0.00966797 14.25359375 0.00966797 15.46875 0.01953125 C17.5625 0.1875 17.5625 0.1875 19.5625 1.1875 C20.50361044 5.53108664 21.00212769 8.01515949 19.4375 12.1875 C17.5625 14.1875 17.5625 14.1875 14.875 14.5 C14.111875 14.396875 13.34875 14.29375 12.5625 14.1875 C12.5625 15.5075 12.5625 16.8275 12.5625 18.1875 C10.9125 18.1875 9.2625 18.1875 7.5625 18.1875 C7.2325 16.2075 6.9025 14.2275 6.5625 12.1875 C5.9025 12.8475 5.2425 13.5075 4.5625 14.1875 C1.9375 14.3125 1.9375 14.3125 -0.4375 14.1875 C-0.4375 15.5075 -0.4375 16.8275 -0.4375 18.1875 C-2.0875 18.1875 -3.7375 18.1875 -5.4375 18.1875 C-5.46434312 15.37493719 -5.48426188 12.56262759 -5.5 9.75 C-5.50837891 8.94755859 -5.51675781 8.14511719 -5.52539062 7.31835938 C-5.5340143 5.27454779 -5.4897815 3.23066098 -5.4375 1.1875 C-3.84855928 -0.40144072 -2.18948576 0.01751589 0 0 Z M-0.4375 4.1875 C-0.4375 5.8375 -0.4375 7.4875 -0.4375 9.1875 C0.5525 8.8575 1.5425 8.5275 2.5625 8.1875 C2.2325 6.8675 1.9025 5.5475 1.5625 4.1875 C0.9025 4.1875 0.2425 4.1875 -0.4375 4.1875 Z M13.5625 4.1875 C13.2325 5.8375 12.9025 7.4875 12.5625 9.1875 C13.5525 8.8575 14.5425 8.5275 15.5625 8.1875 C15.2325 6.8675 14.9025 5.5475 14.5625 4.1875 C14.2325 4.1875 13.9025 4.1875 13.5625 4.1875 Z " fill="#898C8B" transform="translate(255.4375,156.8125)"/>
<path d="M0 0 C2.4375 1.5 2.4375 1.5 4 3 C4 2.34 4 1.68 4 1 C8.37164968 0.22853241 11.68903724 -0.00514676 16 1 C16.05398987 3.27057377 16.09278742 5.54151288 16.125 7.8125 C16.14820313 9.07707031 16.17140625 10.34164062 16.1953125 11.64453125 C16 15 16 15 14 18 C11.8359375 18.29296875 11.8359375 18.29296875 9.375 18.1875 C8.14910156 18.14689453 8.14910156 18.14689453 6.8984375 18.10546875 C6.27195312 18.07066406 5.64546875 18.03585938 5 18 C2.875 13.375 2.875 13.375 4 10 C3.34 10 2.68 10 2 10 C1.34 11.32 0.68 12.64 0 14 C-3.49644963 14.31785906 -5.397402 14.39644605 -8.375 12.4375 C-10.5996142 9.1005787 -10.50030235 6.93094707 -10 3 C-7.77455145 -1.05817089 -4.20489208 -0.44262022 0 0 Z M-4 4 C-4.99 5.485 -4.99 5.485 -6 7 C-5.67 7.66 -5.34 8.32 -5 9 C-4.01 9 -3.02 9 -2 9 C-1.67 8.01 -1.34 7.02 -1 6 C-1.99 5.34 -2.98 4.68 -4 4 Z M9 4 C8.01 5.485 8.01 5.485 7 7 C8.485 7.99 8.485 7.99 10 9 C10.66 8.67 11.32 8.34 12 8 C11.34 6.68 10.68 5.36 10 4 C9.67 4 9.34 4 9 4 Z " fill="#686F6D" transform="translate(457,157)"/>
<path d="M0 0 C13.89594085 -0.50327351 13.89594085 -0.50327351 18.9375 3.5625 C20.95748298 8.1965786 20.57553761 13.27338717 19 18 C19.309375 18.556875 19.61875 19.11375 19.9375 19.6875 C21.53065326 23.15495121 21.12648259 26.2055224 21 30 C18.69 30 16.38 30 14 30 C13.67 27.69 13.34 25.38 13 23 C10.65466049 22.23043864 10.65466049 22.23043864 8 22 C6.32517518 23.42452044 6.32517518 23.42452044 5 25 C2.90090917 16.9035068 1.79034574 10.02413566 5 2 C3.35 1.67 1.7 1.34 0 1 C0 0.67 0 0.34 0 0 Z M5 8 C5 10.64 5 13.28 5 16 C9.89781025 14.53063637 9.89781025 14.53063637 13 10.875 C13 10.25625 13 9.6375 13 9 C11.81575674 7.58422523 11.81575674 7.58422523 8.4375 7.9375 C6.7359375 7.9684375 6.7359375 7.9684375 5 8 Z " fill="#1D9CBC" transform="translate(289,115)"/>
<path d="M0 0 C0.99 0.66 1.98 1.32 3 2 C3.99 1.34 4.98 0.68 6 0 C11.25966595 -0.54788187 11.25966595 -0.54788187 13.66796875 1.234375 C15.36351764 3.48184743 15.37223118 4.77351343 15.3125 7.5625 C15.30863281 8.34753906 15.30476563 9.13257813 15.30078125 9.94140625 C15 12 15 12 13 14 C8.76036719 14.31404687 5.63465602 14.32617985 2 12 C1.34 12.66 0.68 13.32 0 14 C-4.05261287 14.34490322 -5.54754176 14.30163882 -9 12 C-9.3984375 9.6875 -9.3984375 9.6875 -9.375 7 C-9.38273437 6.113125 -9.39046875 5.22625 -9.3984375 4.3125 C-9.26695312 3.549375 -9.13546875 2.78625 -9 2 C-5.53001271 -0.31332486 -4.07490752 -0.33957563 0 0 Z " fill="#696D6C" transform="translate(489,157)"/>
<path d="M0 0 C2.8940621 0.22847859 4.56003344 0.63588974 6.8125 2.5 C8.60081417 6.26487195 8.23646554 9.90126405 8 14 C9.11375 13.87625 9.11375 13.87625 10.25 13.75 C13 14 13 14 15.3125 15.6875 C17 18 17 18 17.4375 20.5625 C17 23 17 23 15.9375 24.75 C13.0139826 26.63614026 10.43860421 26.81902083 7 27 C4.24327114 26.03141959 3.07804877 25.07804877 1 23 C-0.32221952 22.62500077 -1.65795708 22.296327 -3 22 C-4.42366111 21.49860111 -5.84062729 20.97775954 -7.25 20.4375 C-7.95640625 20.16808594 -8.6628125 19.89867188 -9.390625 19.62109375 C-9.92171875 19.41613281 -10.4528125 19.21117188 -11 19 C-11 18.34 -11 17.68 -11 17 C-9.02 17 -7.04 17 -5 17 C-5.04640625 16.34773438 -5.0928125 15.69546875 -5.140625 15.0234375 C-5.39313873 8.90899792 -4.97837028 5.70171033 -1 1 C-0.67 0.67 -0.34 0.34 0 0 Z M2 3 C-1.51909347 7.50883851 -2.62373454 10.28243338 -2 16 C-1.47458333 18.86069302 -1.47458333 18.86069302 0 21 C2.29294488 21.85974801 2.29294488 21.85974801 5 22 C6.03125 22.2475 7.0625 22.495 8.125 22.75 C11.01058699 23.32675259 11.01058699 23.32675259 12.875 21.5625 C13.24625 21.046875 13.6175 20.53125 14 20 C11.28817788 17.39665076 10.10866187 17.00543309 6.25 16.8125 C4.64125 16.9053125 4.64125 16.9053125 3 17 C3.33 16.34 3.66 15.68 4 15 C4.19738723 12.89044938 4.19738723 12.89044938 4.1875 10.5625 C4.20167969 9.78003906 4.21585937 8.99757813 4.23046875 8.19140625 C4.14086064 5.70794013 4.14086064 5.70794013 2 3 Z " fill="#74C3D6" transform="translate(382,98)"/>
<path d="M0 0 C3.63 0 7.26 0 11 0 C9.68 0.33 8.36 0.66 7 1 C7.020625 1.804375 7.04125 2.60875 7.0625 3.4375 C7 6 7 6 6 7 C5.71162373 14.35359495 6.42369535 21.67269803 7 29 C4.69 29 2.38 29 0 29 C-0.33 26.69 -0.66 24.38 -1 22 C-1.99 22 -2.98 22 -4 22 C-4.99 21.34 -5.98 20.68 -7 20 C-6.67 15.71 -6.34 11.42 -6 7 C-4.35 7.33 -2.7 7.66 -1 8 C-0.67 8.99 -0.34 9.98 0 11 C0 7.37 0 3.74 0 0 Z " fill="#3796AB" transform="translate(287,116)"/>
<path d="M0 0 C2.9375 2.5625 2.9375 2.5625 5 5 C5.99 5.33 6.98 5.66 8 6 C8 9.63 8 13.26 8 17 C7.67 17 7.34 17 7 17 C6.67 14.03 6.34 11.06 6 8 C4.68 8 3.36 8 2 8 C1.34 11.96 0.68 15.92 0 20 C-0.66 19.67 -1.32 19.34 -2 19 C-1.835 17.906875 -1.67 16.81375 -1.5 15.6875 C-0.93281816 12.12474127 -0.93281816 12.12474127 -1 9 C-5.1205746 7.00214565 -8.45194365 6.82164485 -13 7 C-13 7.66 -13 8.32 -13 9 C-13.66 9 -14.32 9 -15 9 C-15.66 10.32 -16.32 11.64 -17 13 C-17 10.69 -17 8.38 -17 6 C-19.02996586 6.59621256 -19.02996586 6.59621256 -21 8 C-21.91956802 10.63571568 -21.91956802 10.63571568 -22.25 13.625 C-22.39953125 14.62789062 -22.5490625 15.63078125 -22.703125 16.6640625 C-22.80109375 17.43492187 -22.8990625 18.20578125 -23 19 C-23.33 19 -23.66 19 -24 19 C-24.6048087 13.5343214 -24.70432034 9.21309465 -21.5 4.5625 C-15.50391004 -2.3442111 -8.41446488 -3.26423207 0 0 Z " fill="#309FB8" transform="translate(280,116)"/>
<path d="M0 0 C1.875 1.5 1.875 1.5 3 3 C3.66 2.01 4.32 1.02 5 0 C6.32 0 7.64 0 9 0 C9.33 1.98 9.66 3.96 10 6 C9.34 6 8.68 6 8 6 C7.67 5.01 7.34 4.02 7 3 C6.34 2.67 5.68 2.34 5 2 C5 7.28 5 12.56 5 18 C4.34 17.34 3.68 16.68 3 16 C2.4740625 16.7425 2.4740625 16.7425 1.9375 17.5 C-1.06034694 19.82091376 -3.32644233 19.45113866 -7 19 C-9.36497439 17.13291495 -10.66030715 15.67938569 -12 13 C-12.59873168 7.73116124 -11.25400021 5.1153532 -8 1 C-5.20129973 -0.39935013 -3.09501208 -0.25265405 0 0 Z M-5 6 C-6.35618499 7.12534105 -6.35618499 7.12534105 -6.0625 10.0625 C-6.041875 11.031875 -6.02125 12.00125 -6 13 C-2.18510326 14.46726798 0.29011622 13.43336419 4 12 C4 10.68 4 9.36 4 8 C2.35 8 0.7 8 -1 8 C-1 7.34 -1 6.68 -1 6 C-2.32 6 -3.64 6 -5 6 Z " fill="#949897" transform="translate(312,152)"/>
<path d="M0 0 C1.98 0 3.96 0 6 0 C6.19747891 3.89539457 6.38123029 7.79132016 6.5625 11.6875 C6.61857422 12.79029297 6.67464844 13.89308594 6.73242188 15.02929688 C6.78076172 16.09599609 6.82910156 17.16269531 6.87890625 18.26171875 C6.9260376 19.24100342 6.97316895 20.22028809 7.02172852 21.22924805 C7.00032994 23.95792705 6.62794508 26.35079063 6 29 C4.02 29 2.04 29 0 29 C-0.02505615 28.40985107 -0.0501123 27.81970215 -0.07592773 27.21166992 C-0.19200052 24.53673186 -0.31467572 21.8621362 -0.4375 19.1875 C-0.47681641 18.25873047 -0.51613281 17.32996094 -0.55664062 16.37304688 C-0.59853516 15.48037109 -0.64042969 14.58769531 -0.68359375 13.66796875 C-0.72025146 12.84578857 -0.75690918 12.0236084 -0.79467773 11.17651367 C-0.93427772 8.82094822 -0.93427772 8.82094822 -2 6 C-1.01 5.34 -0.02 4.68 1 4 C0.67 2.68 0.34 1.36 0 0 Z " fill="#1596B3" transform="translate(250,116)"/>
<path d="M0 0 C10.55808656 -0.18451025 10.55808656 -0.18451025 15 1 C15.33 2.98 15.66 4.96 16 7 C15.34 7 14.68 7 14 7 C13.67 6.34 13.34 5.68 13 5 C10.87423218 4.53348793 10.87423218 4.53348793 8.4375 4.375 C7.61121094 4.30023438 6.78492188 4.22546875 5.93359375 4.1484375 C5.29550781 4.09945312 4.65742188 4.05046875 4 4 C4.309375 5.0209375 4.309375 5.0209375 4.625 6.0625 C5.099115 9.77640085 4.07225805 12.44814521 3 16 C3.33 16.66 3.66 17.32 4 18 C3.34 18 2.68 18 2 18 C1.67 18.66 1.34 19.32 1 20 C2.1490712 21.2981424 2.1490712 21.2981424 5 22 C5 23.98 5 25.96 5 28 C3.02 28 1.04 28 -1 28 C-1.02891949 23.70834738 -1.04677118 19.41671964 -1.0625 15.125 C-1.07087891 13.90167969 -1.07925781 12.67835938 -1.08789062 11.41796875 C-1.09111328 10.25136719 -1.09433594 9.08476563 -1.09765625 7.8828125 C-1.10289307 6.80402832 -1.10812988 5.72524414 -1.11352539 4.61376953 C-1 2 -1 2 0 0 Z " fill="#1196B7" transform="translate(313,117)"/>
<path d="M0 0 C2 1.1875 2 1.1875 3 3 C2.625 5.5 2.625 5.5 2 8 C2.33 8.99 2.66 9.98 3 11 C-0.32307692 14.93846154 -0.32307692 14.93846154 -3.75 15.25 C-4.4925 15.1675 -5.235 15.085 -6 15 C-6 15.99 -6 16.98 -6 18 C-6.99 18 -7.98 18 -9 18 C-10 17 -10 17 -10.0625 14.5625 C-10.041875 13.716875 -10.02125 12.87125 -10 12 C-10 10.70785499 -10.03290031 9.41510564 -10.10546875 8.125 C-10.13253906 7.42375 -10.15960938 6.7225 -10.1875 6 C-10.22230469 5.29875 -10.25710937 4.5975 -10.29296875 3.875 C-10.19628906 3.25625 -10.09960938 2.6375 -10 2 C-6.30513897 -0.46324069 -4.36706908 -0.38991688 0 0 Z M-6 12 C-5.67 12.66 -5.34 13.32 -5 14 C-4.01 13.67 -3.02 13.34 -2 13 C-3.32 12.67 -4.64 12.34 -6 12 Z " fill="#606263" transform="translate(232,152)"/>
<path d="M0 0 C0.598125 0.165 1.19625 0.33 1.8125 0.5 C5.15649939 1.26434272 7.75068088 0.8963639 11 0 C12.63636721 3.27273441 10.95888564 6.08580144 9.90234375 9.4453125 C8.8439906 12.44168894 7.53644902 15.21975892 6 18 C4.02 18 2.04 18 0 18 C0 14 0 14 2 12 C1.484375 10.948125 0.96875 9.89625 0.4375 8.8125 C-0.99688183 5.51476233 -1.16452107 3.4935632 0 0 Z " fill="#666A69" transform="translate(283,157)"/>
<path d="M0 0 C1.32 0 2.64 0 4 0 C4 1.65 4 3.3 4 5 C4.969375 4.979375 5.93875 4.95875 6.9375 4.9375 C10 5 10 5 11 6 C11.07258946 8.18639453 11.08373783 10.37500389 11.0625 12.5625 C11.05347656 13.76003906 11.04445313 14.95757812 11.03515625 16.19140625 C11.02355469 17.11824219 11.01195312 18.04507813 11 19 C9.68 19 8.36 19 7 19 C6.67 16.03 6.34 13.06 6 10 C5.67 10 5.34 10 5 10 C4.67 12.97 4.34 15.94 4 19 C2.68 19 1.36 19 0 19 C0 12.73 0 6.46 0 0 Z " fill="#858888" transform="translate(402,152)"/>
<path d="M0 0 C2.375 1.625 2.375 1.625 4 4 C4.61195145 7.6717087 4.48706506 9.28813568 2.375 12.375 C-0.66363906 14.45406883 -2.38449608 14.46155369 -6 14 C-6.99 13.34 -7.98 12.68 -9 12 C-9.3984375 9.6875 -9.3984375 9.6875 -9.375 7 C-9.38273437 6.113125 -9.39046875 5.22625 -9.3984375 4.3125 C-9.26695312 3.549375 -9.13546875 2.78625 -9 2 C-5.50875983 -0.32749345 -4.10777749 -0.50299316 0 0 Z M-4 4 C-4.33 5.32 -4.66 6.64 -5 8 C-3.68 8 -2.36 8 -1 8 C-1.33 6.68 -1.66 5.36 -2 4 C-2.66 4 -3.32 4 -4 4 Z " fill="#7C807F" transform="translate(437,157)"/>
<path d="M0 0 C0.99 0.66 1.98 1.32 3 2 C3 3.32 3 4.64 3 6 C0.03 5.505 0.03 5.505 -3 5 C-3.33 5.99 -3.66 6.98 -4 8 C-0.535 7.505 -0.535 7.505 3 7 C2.25 11.75 2.25 11.75 0 14 C-3.42723983 14.37252607 -5.36467848 14.36781772 -8.375 12.625 C-8.91125 12.08875 -9.4475 11.5525 -10 11 C-10 10.34 -10 9.68 -10 9 C-10.66 8.67 -11.32 8.34 -12 8 C-11.34 8 -10.68 8 -10 8 C-10 6.35 -10 4.7 -10 3 C-9.34 3 -8.68 3 -8 3 C-8 2.34 -8 1.68 -8 1 C-5.22899606 -0.38550197 -3.0665294 -0.1877467 0 0 Z " fill="#868B8A" transform="translate(398,157)"/>
<path d="M0 0 C1.87824891 1.87824891 1.39102397 5.03935276 1.5625 7.5625 C1.64628906 8.76003906 1.73007812 9.95757812 1.81640625 11.19140625 C1.87699219 12.11824219 1.93757813 13.04507813 2 14 C3.32 13.67 4.64 13.34 6 13 C6 13.66 6 14.32 6 15 C4 16.33333333 2 17.66666667 0 19 C-0.33 13.72 -0.66 8.44 -1 3 C-2.32 2.67 -3.64 2.34 -5 2 C-5 10.58 -5 19.16 -5 28 C-2.64214682 27.10664203 -2.64214682 27.10664203 -1.875 23.9375 C-1.441875 22.4834375 -1.441875 22.4834375 -1 21 C-0.34 21 0.32 21 1 21 C1 23.97 1 26.94 1 30 C-1.64 30 -4.28 30 -7 30 C-7.19925938 26.66726265 -7.38223367 23.33381434 -7.5625 20 C-7.61857422 19.06542969 -7.67464844 18.13085938 -7.73242188 17.16796875 C-8.02283652 11.63072945 -8.0550277 6.4583469 -7 1 C-4.51588385 -0.24205807 -2.74800896 -0.14092354 0 0 Z " fill="#5FB4C5" transform="translate(340,115)"/>
<path d="M0 0 C0.66 0.33 1.32 0.66 2 1 C2.05391993 2.79133978 2.09275571 4.58313899 2.125 6.375 C2.14820313 7.37273437 2.17140625 8.37046875 2.1953125 9.3984375 C2 12 2 12 0 14 C-4.05261287 14.34490322 -5.54754176 14.30163882 -9 12 C-9.3984375 9.6875 -9.3984375 9.6875 -9.375 7 C-9.38273437 6.113125 -9.39046875 5.22625 -9.3984375 4.3125 C-9.26695312 3.549375 -9.13546875 2.78625 -9 2 C-5.54337669 -0.30441554 -4.05142119 -0.25860135 0 0 Z " fill="#666C69" transform="translate(386,157)"/>
<path d="M0 0 C0.80566406 0.00257813 1.61132812 0.00515625 2.44140625 0.0078125 C3.64603516 0.00394531 3.64603516 0.00394531 4.875 0 C7.00390625 0.1328125 7.00390625 0.1328125 9.00390625 1.1328125 C9.00390625 5.4228125 9.00390625 9.7128125 9.00390625 14.1328125 C7.68390625 14.1328125 6.36390625 14.1328125 5.00390625 14.1328125 C4.95492188 13.49472656 4.9059375 12.85664063 4.85546875 12.19921875 C4.78070313 11.37292969 4.7059375 10.54664063 4.62890625 9.6953125 C4.52449219 8.45974609 4.52449219 8.45974609 4.41796875 7.19921875 C4.28132813 6.51730469 4.1446875 5.83539063 4.00390625 5.1328125 C3.34390625 4.8028125 2.68390625 4.4728125 2.00390625 4.1328125 C2.00390625 7.1028125 2.00390625 10.0728125 2.00390625 13.1328125 C0.35390625 13.4628125 -1.29609375 13.7928125 -2.99609375 14.1328125 C-3.02295313 11.98704613 -3.04242463 9.84118605 -3.05859375 7.6953125 C-3.07019531 6.50035156 -3.08179688 5.30539063 -3.09375 4.07421875 C-2.96503364 0.19728208 -2.96503364 0.19728208 0 0 Z " fill="#959897" transform="translate(350.99609375,156.8671875)"/>
<path d="M0 0 C0.33 0 0.66 0 1 0 C0.67 2.64 0.34 5.28 0 8 C0.99 8 1.98 8 3 8 C4.28317892 11.84953676 4.06643637 14.94738135 4 19 C1.69 19 -0.62 19 -3 19 C-3.144375 17.906875 -3.28875 16.81375 -3.4375 15.6875 C-3.88288104 12.06877013 -3.88288104 12.06877013 -5 9 C-5.969375 8.87625 -6.93875 8.7525 -7.9375 8.625 C-8.948125 8.41875 -9.95875 8.2125 -11 8 C-11.33 7.34 -11.66 6.68 -12 6 C-10.865625 5.71125 -9.73125 5.4225 -8.5625 5.125 C-7.386875 4.75375 -6.21125 4.3825 -5 4 C-4.67 3.34 -4.34 2.68 -4 2 C-2.68 2.66 -1.36 3.32 0 4 C0 2.68 0 1.36 0 0 Z " fill="#1892AE" transform="translate(306,126)"/>
<path d="M0 0 C0.66 0.33 1.32 0.66 2 1 C2.05399736 2.45792884 2.09279177 3.91642712 2.125 5.375 C2.14820313 6.18710938 2.17140625 6.99921875 2.1953125 7.8359375 C2 10 2 10 0 12 C0 12.66 0 13.32 0 14 C-5.625 14.25 -5.625 14.25 -9 12 C-9.3984375 9.6875 -9.3984375 9.6875 -9.375 7 C-9.38273437 6.113125 -9.39046875 5.22625 -9.3984375 4.3125 C-9.26695312 3.549375 -9.13546875 2.78625 -9 2 C-5.54337669 -0.30441554 -4.05142119 -0.25860135 0 0 Z " fill="#7C807F" transform="translate(489,157)"/>
<path d="M0 0 C1.60875 -0.04125 3.2175 -0.0825 4.875 -0.125 C5.77992188 -0.14820313 6.68484375 -0.17140625 7.6171875 -0.1953125 C10 0 10 0 12 2 C12.1953125 4.8203125 12.1953125 4.8203125 12.125 8.125 C12.10695313 9.22070312 12.08890625 10.31640625 12.0703125 11.4453125 C12.04710937 12.28835937 12.02390625 13.13140625 12 14 C10.68 14 9.36 14 8 14 C7.95101563 13.36191406 7.90203125 12.72382813 7.8515625 12.06640625 C7.77679688 11.24011719 7.70203125 10.41382813 7.625 9.5625 C7.52058594 8.32693359 7.52058594 8.32693359 7.4140625 7.06640625 C7.27742188 6.38449219 7.14078125 5.70257813 7 5 C6.34 4.67 5.68 4.34 5 4 C4.67 7.3 4.34 10.6 4 14 C2.68 14 1.36 14 0 14 C0 9.38 0 4.76 0 0 Z " fill="#7A7D7C" transform="translate(415,157)"/>
<path d="M0 0 C0.99 0.33 1.98 0.66 3 1 C3 1.99 3 2.98 3 4 C6.465 3.505 6.465 3.505 10 3 C11.00496852 6.01490557 11.10335303 8.04181692 11.0625 11.1875 C11.05347656 12.08855469 11.04445313 12.98960937 11.03515625 13.91796875 C11.02355469 14.60503906 11.01195312 15.29210937 11 16 C9.68 16 8.36 16 7 16 C7 13.03 7 10.06 7 7 C6.01 7.495 6.01 7.495 5 8 C4.53348793 10.12576782 4.53348793 10.12576782 4.375 12.5625 C4.30023438 13.38878906 4.22546875 14.21507812 4.1484375 15.06640625 C4.09945313 15.70449219 4.05046875 16.34257812 4 17 C2.68 17 1.36 17 0 17 C0 11.39 0 5.78 0 0 Z " fill="#737776" transform="translate(317,154)"/>
<path d="M0 0 C0.94875 0.04125 1.8975 0.0825 2.875 0.125 C0.895 1.115 0.895 1.115 -1.125 2.125 C-1.125 3.445 -1.125 4.765 -1.125 6.125 C-2.115 6.455 -3.105 6.785 -4.125 7.125 C-4.125 7.785 -4.125 8.445 -4.125 9.125 C-3.465 9.455 -2.805 9.785 -2.125 10.125 C-2.125 16.725 -2.125 23.325 -2.125 30.125 C-2.455 30.125 -2.785 30.125 -3.125 30.125 C-3.455 25.835 -3.785 21.545 -4.125 17.125 C-4.57875 18.094375 -5.0325 19.06375 -5.5 20.0625 C-7.125 23.125 -7.125 23.125 -9.125 24.125 C-9.49596774 18.56048387 -9.49596774 18.56048387 -7.6875 16.4375 C-7.171875 16.004375 -6.65625 15.57125 -6.125 15.125 C-5.795 14.135 -5.465 13.145 -5.125 12.125 C-6.445 12.125 -7.765 12.125 -9.125 12.125 C-9.455 13.445 -9.785 14.765 -10.125 16.125 C-11.115 15.795 -12.105 15.465 -13.125 15.125 C-11.81668252 12.50836503 -10.25206591 10.0970792 -8.6875 7.625 C-8.07003906 6.6453125 -7.45257813 5.665625 -6.81640625 4.65625 C-3.80680377 0.15227215 -3.80680377 0.15227215 0 0 Z " fill="#5FB6CB" transform="translate(252.125,114.875)"/>
<path d="M0 0 C1.98 0.495 1.98 0.495 4 1 C4 3.31 4 5.62 4 8 C7.49234244 8.09978121 10.59437148 7.77842938 14 7 C13.25 11.75 13.25 11.75 11 14 C6.97895243 14.44678306 4.86243584 14.6808704 1.625 12.125 C-1.0784304 8.58974486 -1.1844448 6.4266751 -1 2 C-0.67 1.34 -0.34 0.68 0 0 Z " fill="#666C6A" transform="translate(301,157)"/>
<path d="M0 0 C2.46800047 1.15173355 4.04783565 2.04783565 6 4 C6.35256314 6.7499925 6.39100294 8.35599515 4.9375 10.75 C2.0139826 12.63614026 -0.56139579 12.81902083 -4 13 C-6.75672886 12.03141959 -7.92195123 11.07804877 -10 9 C-10.99 8.67 -11.98 8.34 -13 8 C-10.1875 6.875 -10.1875 6.875 -7 6 C-6.01 6.66 -5.02 7.32 -4 8 C-0.85778033 7.68493373 -0.85778033 7.68493373 2 7 C-0.06756277 4.2027092 -1.14440371 3.97307727 -4.6875 3.3125 C-5.780625 3.209375 -6.87375 3.10625 -8 3 C-7.67 2.34 -7.34 1.68 -7 1 C-5.5459375 1.0309375 -5.5459375 1.0309375 -4.0625 1.0625 C-1.12534105 1.35618499 -1.12534105 1.35618499 0 0 Z " fill="#86BDCA" transform="translate(393,112)"/>
<path d="M0 0 C0.66 0 1.32 0 2 0 C2 0.66 2 1.32 2 2 C2.99 2.33 3.98 2.66 5 3 C6.6875 4.5625 6.6875 4.5625 8 6 C8.33 4.68 8.66 3.36 9 2 C10.32 2 11.64 2 13 2 C12.67 4.31 12.34 6.62 12 9 C11.34 8.67 10.68 8.34 10 8 C9.67 10.31 9.34 12.62 9 15 C5.85167182 14.0618618 4.31322478 13.44108707 2.3828125 10.72265625 C1.96773437 9.84480469 1.55265625 8.96695313 1.125 8.0625 C0.69445312 7.18722656 0.26390625 6.31195313 -0.1796875 5.41015625 C-1 3 -1 3 0 0 Z " fill="#1197B7" transform="translate(234,125)"/>
<path d="M0 0 C1.65 0 3.3 0 5 0 C5 6.27 5 12.54 5 19 C3.35 19 1.7 19 0 19 C0 12.73 0 6.46 0 0 Z " fill="#929695" transform="translate(474,152)"/>
<path d="M0 0 C0.02712066 1.43739513 0.04645067 2.87493863 0.0625 4.3125 C0.07410156 5.11300781 0.08570313 5.91351563 0.09765625 6.73828125 C0 9 0 9 -1 12 C-1.66 12 -2.32 12 -3 12 C-3.66 13.32 -4.32 14.64 -5 16 C-5.66 15.67 -6.32 15.34 -7 15 C-7 14.34 -7 13.68 -7 13 C-6.34 12.67 -5.68 12.34 -5 12 C-4.67 11.01 -4.34 10.02 -4 9 C-3.34 9 -2.68 9 -2 9 C-2 7.02 -2 5.04 -2 3 C-2.99 3.33 -3.98 3.66 -5 4 C-5.67784992 6.33010909 -6.34416793 8.66359824 -7 11 C-9.94266089 12.96177393 -11.12432473 13.36742347 -14.5 13.75 C-15.66015625 13.89695313 -15.66015625 13.89695313 -16.84375 14.046875 C-19 14 -19 14 -22 12 C-21.67 11.34 -21.34 10.68 -21 10 C-20.67 10.33 -20.34 10.66 -20 11 C-14.59919441 11.66735415 -14.59919441 11.66735415 -10.0625 9.375 C-8.81596496 6.58862755 -8.34370277 4.02458441 -8 1 C-2.25 -1.125 -2.25 -1.125 0 0 Z " fill="#61B4C5" transform="translate(390,126)"/>
<path d="M0 0 C0.66 0 1.32 0 2 0 C2.042721 1.66611905 2.04063832 3.33382885 2 5 C1.67 5.33 1.34 5.66 1 6 C0.91330568 7.4887186 0.89296506 8.981445 0.90234375 10.47265625 C0.90556641 11.37177734 0.90878906 12.27089844 0.91210938 13.19726562 C0.92048828 14.14279297 0.92886719 15.08832031 0.9375 16.0625 C0.94201172 17.01189453 0.94652344 17.96128906 0.95117188 18.93945312 C0.9629989 21.29303065 0.97947975 23.64648477 1 26 C-0.32 26 -1.64 26 -3 26 C-3.08720919 22.41682042 -3.14046112 18.83391433 -3.1875 15.25 C-3.21263672 14.23421875 -3.23777344 13.2184375 -3.26367188 12.171875 C-3.27333984 11.1921875 -3.28300781 10.2125 -3.29296875 9.203125 C-3.3086792 8.30239258 -3.32438965 7.40166016 -3.34057617 6.47363281 C-2.93305636 3.51378279 -2.05379533 2.14086551 0 0 Z " fill="#0D98B9" transform="translate(292,117)"/>
<path d="M0 0 C0.66 0.33 1.32 0.66 2 1 C1.90460938 1.91523437 1.80921875 2.83046875 1.7109375 3.7734375 C1.60007812 4.96195312 1.48921875 6.15046875 1.375 7.375 C1.20097656 9.15003906 1.20097656 9.15003906 1.0234375 10.9609375 C1.01570313 11.96382812 1.00796875 12.96671875 1 14 C1.66 14.66 2.32 15.32 3 16 C3 16.99 3 17.98 3 19 C1.35 19.33 -0.3 19.66 -2 20 C-4.69073827 17.30926173 -5.00425593 15.94637525 -5.3125 12.0625 C-5.13541541 7.7319768 -4.32330816 4.47599757 -1.375 1.1875 C-0.92125 0.795625 -0.4675 0.40375 0 0 Z " fill="#329BB6" transform="translate(262,121)"/>
<path d="M0 0 C1.23556641 0.01740234 1.23556641 0.01740234 2.49609375 0.03515625 C3.32238281 0.04417969 4.14867187 0.05320313 5 0.0625 C5.63808594 0.07410156 6.27617187 0.08570313 6.93359375 0.09765625 C7.59359375 1.41765625 8.25359375 2.73765625 8.93359375 4.09765625 C4.18359375 5.22265625 4.18359375 5.22265625 1.93359375 4.09765625 C1.93359375 5.74765625 1.93359375 7.39765625 1.93359375 9.09765625 C1.27359375 7.77765625 0.61359375 6.45765625 -0.06640625 5.09765625 C-1.05640625 8.56265625 -1.05640625 8.56265625 -2.06640625 12.09765625 C0.90359375 12.42765625 3.87359375 12.75765625 6.93359375 13.09765625 C6.93359375 13.42765625 6.93359375 13.75765625 6.93359375 14.09765625 C5.28359375 14.09765625 3.63359375 14.09765625 1.93359375 14.09765625 C1.93359375 15.41765625 1.93359375 16.73765625 1.93359375 18.09765625 C0.28359375 18.09765625 -1.36640625 18.09765625 -3.06640625 18.09765625 C-3.09324937 15.28509344 -3.11316813 12.47278384 -3.12890625 9.66015625 C-3.13728516 8.85771484 -3.14566406 8.05527344 -3.15429688 7.22851562 C-3.16292055 5.18470404 -3.11868775 3.14081723 -3.06640625 1.09765625 C-2.06640625 0.09765625 -2.06640625 0.09765625 0 0 Z " fill="#6C7471" transform="translate(253.06640625,156.90234375)"/>
<path d="M0 0 C2.23063517 2.97418022 4.27615616 5.7246967 6 9 C5.67 9.66 5.34 10.32 5 11 C4.34 10.67 3.68 10.34 3 10 C3 9.34 3 8.68 3 8 C2.34 8 1.68 8 1 8 C1.59277581 12.74220651 3.43477195 16.99293688 6 21 C6.99 21.66 7.98 22.32 9 23 C6.1875 22.875 6.1875 22.875 3 22 C1.125 18.9375 1.125 18.9375 0 16 C-0.33 19.63 -0.66 23.26 -1 27 C-1.66 26.67 -2.32 26.34 -3 26 C-3 21.05 -3 16.1 -3 11 C-2.34 11 -1.68 11 -1 11 C-0.67 7.37 -0.34 3.74 0 0 Z " fill="#46A8BD" transform="translate(233,117)"/>
<path d="M0 0 C3.3 0 6.6 0 10 0 C11 4 11 4 10 6 C10.66 6.66 11.32 7.32 12 8 C9.69 8 7.38 8 5 8 C5.33 10.31 5.66 12.62 6 15 C7.98 14.34 9.96 13.68 12 13 C12 13.66 12 14.32 12 15 C10.02 15.99 8.04 16.98 6 18 C7.98 18.66 9.96 19.32 12 20 C11.401875 20.268125 10.80375 20.53625 10.1875 20.8125 C8.01683117 21.99086308 6.69182788 23.23060981 5 25 C2.90090917 16.9035068 1.79034574 10.02413566 5 2 C3.35 1.67 1.7 1.34 0 1 C0 0.67 0 0.34 0 0 Z " fill="#43A8BC" transform="translate(289,115)"/>
<path d="M0 0 C1.32 0 2.64 0 4 0 C5.19826732 5.54198634 6.62299724 13.75400551 4 19 C2.68 19 1.36 19 0 19 C0 12.73 0 6.46 0 0 Z " fill="#8E9190" transform="translate(342,152)"/>
<path d="M0 0 C1.65 0 3.3 0 5 0 C5 3.63 5 7.26 5 11 C5.66 11.33 6.32 11.66 7 12 C6.67 12.99 6.34 13.98 6 15 C5.77548542 17.22574335 5.59217122 19.45581519 5.4375 21.6875 C5.35371094 22.86699219 5.26992188 24.04648438 5.18359375 25.26171875 C5.12300781 26.16535156 5.06242187 27.06898438 5 28 C2.69 28 0.38 28 -2 28 C-1.67 27.34 -1.34 26.68 -1 26 C0.32 26 1.64 26 3 26 C2.88543872 23.60325733 2.75871281 21.20818782 2.625 18.8125 C2.5940625 18.13896484 2.563125 17.46542969 2.53125 16.77148438 C2.29641104 12.75965208 1.52632496 9.68423266 0 6 C0.875 3.1875 0.875 3.1875 2 1 C1.34 0.67 0.68 0.34 0 0 Z " fill="#1D8FA8" transform="translate(354,117)"/>
<path d="M0 0 C0.33 0 0.66 0 1 0 C1.19747891 3.89539457 1.38123029 7.79132016 1.5625 11.6875 C1.61857422 12.79029297 1.67464844 13.89308594 1.73242188 15.02929688 C1.78076172 16.09599609 1.82910156 17.16269531 1.87890625 18.26171875 C1.9260376 19.24100342 1.97316895 20.22028809 2.02172852 21.22924805 C2.00032994 23.95792705 1.62794508 26.35079063 1 29 C-0.98 29 -2.96 29 -5 29 C-5 23.39 -5 17.78 -5 12 C-4.67 12 -4.34 12 -4 12 C-3.67 14.31 -3.34 16.62 -3 19 C-2.01 19 -1.02 19 0 19 C0 12.73 0 6.46 0 0 Z " fill="#2699B4" transform="translate(255,116)"/>
<path d="M0 0 C2.475 0.495 2.475 0.495 5 1 C5 6.28 5 11.56 5 17 C3.35 17 1.7 17 0 17 C0 11.39 0 5.78 0 0 Z " fill="#1296B5" transform="translate(335,117)"/>
<path d="M0 0 C2.0625 0.4375 2.0625 0.4375 4 1 C4.02686553 2.97909398 4.04633375 4.95828971 4.0625 6.9375 C4.07410156 8.03964844 4.08570313 9.14179688 4.09765625 10.27734375 C4 13 4 13 3 14 C1.48071962 14.07179964 -0.04167482 14.08392007 -1.5625 14.0625 C-2.38878906 14.05347656 -3.21507812 14.04445312 -4.06640625 14.03515625 C-4.70449219 14.02355469 -5.34257812 14.01195312 -6 14 C-6 13.34 -6 12.68 -6 12 C-4.35 11.67 -2.7 11.34 -1 11 C-1.99 10.67 -2.98 10.34 -4 10 C-3.67 9.34 -3.34 8.68 -3 8 C-2.67 8 -2.34 8 -2 8 C-1.855625 6.865625 -1.71125 5.73125 -1.5625 4.5625 C-1 1 -1 1 0 0 Z " fill="#A5A6A6" transform="translate(245,157)"/>
<path d="M0 0 C2.475 0.99 2.475 0.99 5 2 C4.125 8.875 4.125 8.875 3 10 C0.66702567 10.04092937 -1.66705225 10.04241723 -4 10 C-4.33 10.66 -4.66 11.32 -5 12 C-5 11.01 -5 10.02 -5 9 C-5.66 9 -6.32 9 -7 9 C-6.74438677 6.6568787 -6.40729228 4.32156597 -6 2 C-5.34 1.67 -4.68 1.34 -4 1 C-4 2.65 -4 4.3 -4 6 C-3.01 5.67 -2.02 5.34 -1 5 C-0.67 3.35 -0.34 1.7 0 0 Z " fill="#69706E" transform="translate(258,160)"/>
<path d="M0 0 C1.32 0 2.64 0 4 0 C6 3 6 3 6 7 C5.195625 7.2475 4.39125 7.495 3.5625 7.75 C0.828919 8.72238859 0.828919 8.72238859 0.1875 11.125 C0.125625 11.74375 0.06375 12.3625 0 13 C-0.33 10.69 -0.66 8.38 -1 6 C-1.99 6.33 -2.98 6.66 -4 7 C-4.33 8.65 -4.66 10.3 -5 12 C-5.66 12 -6.32 12 -7 12 C-6.6257368 6.63556087 -5.0040457 4.50353999 -1 1 C-0.67 0.67 -0.34 0.34 0 0 Z " fill="#53AEC1" transform="translate(366,116)"/>
<path d="M0 0 C3.5 0.25 3.5 0.25 5.5 2.25 C5.625 5.875 5.625 5.875 5.5 9.25 C4.51 9.58 3.52 9.91 2.5 10.25 C1.84 8.6 1.18 6.95 0.5 5.25 C-0.49 5.745 -0.49 5.745 -1.5 6.25 C-1.83 7.24 -2.16 8.23 -2.5 9.25 C-3.49 9.25 -4.48 9.25 -5.5 9.25 C-5.625 5.875 -5.625 5.875 -5.5 2.25 C-3.5 0.25 -3.5 0.25 0 0 Z " fill="#6D7170" transform="translate(453.5,156.75)"/>
<path d="M0 0 C1.32 0 2.64 0 4 0 C4 6.27 4 12.54 4 19 C2.68 19 1.36 19 0 19 C0 12.73 0 6.46 0 0 Z " fill="#7C8483" transform="translate(277,152)"/>
<path d="M0 0 C1.32 0 2.64 0 4 0 C4 6.27 4 12.54 4 19 C2.68 19 1.36 19 0 19 C0 12.73 0 6.46 0 0 Z " fill="#797D7C" transform="translate(442,152)"/>
<path d="M0 0 C0.66 0 1.32 0 2 0 C2.33 0.99 2.66 1.98 3 3 C1.60823368 3.96423026 0.2113777 4.92111602 -1.1875 5.875 C-1.96480469 6.40867188 -2.74210937 6.94234375 -3.54296875 7.4921875 C-7.06043374 9.65075902 -9.84363635 11 -14 11 C-14 10.34 -14 9.68 -14 9 C-14.66 9 -15.32 9 -16 9 C-15 7 -15 7 -13.1875 6.21875 C-11 5.5 -11 5.5 -8.8125 4.78125 C-6.80487204 4.14670555 -6.80487204 4.14670555 -6 2 C-4.02 2 -2.04 2 0 2 C0 1.34 0 0.68 0 0 Z " fill="#2CA1BA" transform="translate(329,129)"/>
<path d="M0 0 C1.10844919 3.32534757 0.84454356 5.62182575 0 9 C-0.66 9 -1.32 9 -2 9 C-2.66 10.32 -3.32 11.64 -4 13 C-7.49644963 13.31785906 -9.397402 13.39644605 -12.375 11.4375 C-14.54455002 8.18317497 -14.29451507 5.82869586 -14 2 C-13.67 2 -13.34 2 -13 2 C-13 3.98 -13 5.96 -13 8 C-12.01 8 -11.02 8 -10 8 C-9.67 7.34 -9.34 6.68 -9 6 C-9 6.66 -9 7.32 -9 8 C-6.69 8 -4.38 8 -2 8 C-2 6.02 -2 4.04 -2 2 C-1.34 2 -0.68 2 0 2 C0 1.34 0 0.68 0 0 Z " fill="#797C7B" transform="translate(461,158)"/>
<path d="M0 0 C0.99 0.33 1.98 0.66 3 1 C2.98839844 1.65226562 2.97679687 2.30453125 2.96484375 2.9765625 C2.91529006 7.7761914 3.00586249 12.27784685 4 17 C0.7 16.34 -2.6 15.68 -6 15 C-6.33 14.01 -6.66 13.02 -7 12 C-5.02 12 -3.04 12 -1 12 C-1.01160156 11.30132812 -1.02320313 10.60265625 -1.03515625 9.8828125 C-1.04417969 8.97273438 -1.05320312 8.06265625 -1.0625 7.125 C-1.07410156 6.22007813 -1.08570313 5.31515625 -1.09765625 4.3828125 C-1 2 -1 2 0 0 Z " fill="#6FADBA" transform="translate(378,103)"/>
<path d="M0 0 C0.33 0 0.66 0 1 0 C1.05398987 2.27057377 1.09278742 4.54151288 1.125 6.8125 C1.14820313 8.07707031 1.17140625 9.34164062 1.1953125 10.64453125 C1 14 1 14 -1 17 C-3.1640625 17.29296875 -3.1640625 17.29296875 -5.625 17.1875 C-6.85089844 17.14689453 -6.85089844 17.14689453 -8.1015625 17.10546875 C-8.72804688 17.07066406 -9.35453125 17.03585938 -10 17 C-10.66 15.35 -11.32 13.7 -12 12 C-10.54182203 11.83197949 -9.0834516 11.66562857 -7.625 11.5 C-6.81289063 11.4071875 -6.00078125 11.314375 -5.1640625 11.21875 C-3 11 -3 11 -1 11 C-0.67 7.37 -0.34 3.74 0 0 Z " fill="#8D918F" transform="translate(472,158)"/>
<path d="M0 0 C1.65 0.33 3.3 0.66 5 1 C5 5.62 5 10.24 5 15 C2 15 2 15 -1 13 C-0.67 8.71 -0.34 4.42 0 0 Z " fill="#1395B5" transform="translate(281,123)"/>
<path d="M0 0 C2.31 0.33 4.62 0.66 7 1 C7.33 2.32 7.66 3.64 8 5 C7.34 5 6.68 5 6 5 C6 5.66 6 6.32 6 7 C5.34 7 4.68 7 4 7 C3.34 8.32 2.68 9.64 2 11 C2 8.69 2 6.38 2 4 C-0.02996586 4.59621256 -0.02996586 4.59621256 -2 6 C-2.91956802 8.63571568 -2.91956802 8.63571568 -3.25 11.625 C-3.39953125 12.62789062 -3.5490625 13.63078125 -3.703125 14.6640625 C-3.80109375 15.43492187 -3.8990625 16.20578125 -4 17 C-4.33 17 -4.66 17 -5 17 C-5.48761453 11.61456845 -5.79079255 7.38941118 -2.5 2.875 C-1.2625 1.451875 -1.2625 1.451875 0 0 Z " fill="#1694B1" transform="translate(261,118)"/>
<path d="M0 0 C0.99 0 1.98 0 3 0 C3 1.32 3 2.64 3 4 C1.35 4 -0.3 4 -2 4 C-2 8.29 -2 12.58 -2 17 C-2.99 17 -3.98 17 -5 17 C-5 12.38 -5 7.76 -5 3 C-5.99 2.67 -6.98 2.34 -8 2 C-7.67 1.67 -7.34 1.34 -7 1 C-5 1 -3 1 -1 1 C-0.67 0.67 -0.34 0.34 0 0 Z " fill="#525956" transform="translate(376,153)"/>
<path d="M0 0 C0.99 0.66 1.98 1.32 3 2 C3 3.32 3 4.64 3 6 C0.03 5.505 0.03 5.505 -3 5 C-3.66 6.98 -4.32 8.96 -5 11 C-5.66 11 -6.32 11 -7 11 C-8.60725635 7.78548731 -8.05748185 4.56387464 -8 1 C-5.22899606 -0.38550197 -3.0665294 -0.1877467 0 0 Z " fill="#707574" transform="translate(398,157)"/>
<path d="M0 0 C1.47906892 -0.02689216 2.95827483 -0.04634621 4.4375 -0.0625 C5.26121094 -0.07410156 6.08492188 -0.08570312 6.93359375 -0.09765625 C9 0 9 0 10 1 C10.04346799 2.99952758 10.039992 5.00039988 10 7 C10 7.99 10 8.98 10 10 C8.02 10.99 8.02 10.99 6 12 C6 12.33 6 12.66 6 13 C3.125 13.625 3.125 13.625 0 14 C-0.66 13.34 -1.32 12.68 -2 12 C-1.34 9.69 -0.68 7.38 0 5 C0.33 5 0.66 5 1 5 C1 6.65 1 8.3 1 10 C3.31 8.68 5.62 7.36 8 6 C8 4.68 8 3.36 8 2 C5.36 2.33 2.72 2.66 0 3 C0 2.01 0 1.02 0 0 Z " fill="#4FABC2" transform="translate(317,121)"/>
<path d="M0 0 C0.66 0 1.32 0 2 0 C2.53625 0.99 3.0725 1.98 3.625 3 C5.58575666 6.12626783 5.58575666 6.12626783 7.96875 6.43359375 C10.88515773 6.4388771 13.36589023 6.31705489 16 5 C15.34 6.32 14.68 7.64 14 9 C10.2919939 9.28329418 6.69906598 9.44192381 3 9 C-0.05032323 5.86252467 0 4.40147041 0 0 Z M-1 9 C0.32 9 1.64 9 3 9 C3.66 10.65 4.32 12.3 5 14 C3.02 13.34 1.04 12.68 -1 12 C-1 11.01 -1 10.02 -1 9 Z " fill="#5BB2C4" transform="translate(262,131)"/>
<path d="M0 0 C2.64 0.33 5.28 0.66 8 1 C7.67 1.66 7.34 2.32 7 3 C6.01 3 5.02 3 4 3 C4 6.63 4 10.26 4 14 C2.68 14 1.36 14 0 14 C0 9.38 0 4.76 0 0 Z " fill="#707675" transform="translate(415,157)"/>
<path d="M0 0 C0.33 0 0.66 0 1 0 C1 6.27 1 12.54 1 19 C2.65 19.33 4.3 19.66 6 20 C6 21.98 6 23.96 6 26 C4.02 26 2.04 26 0 26 C0 17.42 0 8.84 0 0 Z " fill="#2A94AE" transform="translate(312,119)"/>
<path d="M0 0 C2.33944736 0.28730055 4.6739143 0.61936779 7 1 C7 1.66 7 2.32 7 3 C4.03 2.505 4.03 2.505 1 2 C1.99 3.485 1.99 3.485 3 5 C3.1953125 7.26171875 3.1953125 7.26171875 3.125 9.6875 C3.10695313 10.49574219 3.08890625 11.30398437 3.0703125 12.13671875 C3.03550781 13.05904297 3.03550781 13.05904297 3 14 C1.68 14 0.36 14 -1 14 C-1.02685938 11.85423363 -1.04633088 9.70837355 -1.0625 7.5625 C-1.07410156 6.36753906 -1.08570313 5.17257813 -1.09765625 3.94140625 C-1 1 -1 1 0 0 Z " fill="#777B79" transform="translate(349,157)"/>
<path d="M0 0 C1.65322266 0.01740234 1.65322266 0.01740234 3.33984375 0.03515625 C4.99693359 0.04869141 4.99693359 0.04869141 6.6875 0.0625 C7.54214844 0.07410156 8.39679688 0.08570312 9.27734375 0.09765625 C9.27734375 0.75765625 9.27734375 1.41765625 9.27734375 2.09765625 C5.64734375 2.09765625 2.01734375 2.09765625 -1.72265625 2.09765625 C-2.05265625 11.33765625 -2.38265625 20.57765625 -2.72265625 30.09765625 C-3.05265625 30.09765625 -3.38265625 30.09765625 -3.72265625 30.09765625 C-3.74731371 25.98593065 -3.76549584 21.87423347 -3.77758789 17.76245117 C-3.78262705 16.36270397 -3.78945841 14.96296205 -3.7980957 13.56323242 C-3.81017945 11.55519848 -3.81535432 9.54712668 -3.8203125 7.5390625 C-3.82554932 6.32935791 -3.83078613 5.11965332 -3.83618164 3.87329102 C-3.68316465 0.13210777 -3.68316465 0.13210777 0 0 Z " fill="#6CAEC6" transform="translate(314.72265625,114.90234375)"/>
<path d="M0 0 C0.33 0 0.66 0 1 0 C1 2.97 1 5.94 1 9 C1.66 9 2.32 9 3 9 C2.67 7.68 2.34 6.36 2 5 C3.32 5 4.64 5 6 5 C5.01 5.495 5.01 5.495 4 6 C4 6.66 4 7.32 4 8 C7.465 7.505 7.465 7.505 11 7 C10.125 10.875 10.125 10.875 9 12 C4.96839809 12.26293056 3.44107266 12.29404844 0 10 C-0.29296875 7.6171875 -0.29296875 7.6171875 -0.1875 4.875 C-0.16042969 3.96492187 -0.13335937 3.05484375 -0.10546875 2.1171875 C-0.07066406 1.41851562 -0.03585937 0.71984375 0 0 Z " fill="#747877" transform="translate(377,159)"/>
<path d="M0 0 C3.125 -0.1875 3.125 -0.1875 6 0 C6 1.32 6 2.64 6 4 C4.68 3.67 3.36 3.34 2 3 C2 3.66 2 4.32 2 5 C2.99 5.33 3.98 5.66 5 6 C-0.875 11 -0.875 11 -2 11 C-2.25 3.375 -2.25 3.375 0 0 Z " fill="#5F6463" transform="translate(483,157)"/>
<path d="M0 0 C0 0.99 0 1.98 0 3 C-1.65 3 -3.3 3 -5 3 C-5 5.64 -5 8.28 -5 11 C-5.99 11 -6.98 11 -8 11 C-9.52150158 7.95699684 -9.23899393 5.345915 -9 2 C-5.5647952 -0.29013653 -4.014669 -0.17842973 0 0 Z " fill="#656A68" transform="translate(437,157)"/>
<path d="M0 0 C1.65 0 3.3 0 5 0 C6.125 6.625 6.125 6.625 5 10 C3.35 10 1.7 10 0 10 C0 6.7 0 3.4 0 0 Z " fill="#0F98BC" transform="translate(227,118)"/>
<path d="M0 0 C1.65 0.33 3.3 0.66 5 1 C4 9.57142857 4 9.57142857 3 13 C1.68 12.67 0.36 12.34 -1 12 C-0.01 11.67 0.98 11.34 2 11 C0.35 9.02 -1.3 7.04 -3 5 C-1.68 5 -0.36 5 1 5 C1 4.34 1 3.68 1 3 C0.34 3 -0.32 3 -1 3 C-0.67 2.01 -0.34 1.02 0 0 Z " fill="#525856" transform="translate(498,157)"/>
<path d="M0 0 C0.66 0.33 1.32 0.66 2 1 C0.125 6.875 0.125 6.875 -1 8 C-4.4375 8.25 -4.4375 8.25 -8 8 C-8.66 7.01 -9.32 6.02 -10 5 C-8 3 -8 3 -5.5625 2.9375 C-4.2940625 2.9684375 -4.2940625 2.9684375 -3 3 C-2.01 2.67 -1.02 2.34 0 2 C0 1.34 0 0.68 0 0 Z " fill="#57615A" transform="translate(234,163)"/>
<path d="M0 0 C-1.65 1.65 -3.3 3.3 -5 5 C-5 4.01 -5 3.02 -5 2 C-5.66 2 -6.32 2 -7 2 C-7.33 4.31 -7.66 6.62 -8 9 C-8.99 9 -9.98 9 -11 9 C-11 6.03 -11 3.06 -11 0 C-6.98195309 -0.84098656 -3.98196457 -1.05404945 0 0 Z " fill="#25A2BF" transform="translate(346,134)"/>
<path d="M0 0 C1.875 0.3125 1.875 0.3125 4 1 C6 4 6 4 6 7 C5.01 7 4.02 7 3 7 C3 8.65 3 10.3 3 12 C-1.11320755 5.83018868 -1.11320755 5.83018868 -0.625 2.25 C-0.41875 1.5075 -0.2125 0.765 0 0 Z " fill="#868989" transform="translate(283,157)"/>
<path d="M0 0 C0.99 0 1.98 0 3 0 C3 3.3 3 6.6 3 10 C-0.37817425 10.84454356 -2.67465243 11.10844919 -6 10 C-5.34 9.34 -4.68 8.68 -4 8 C-3.01 8 -2.02 8 -1 8 C-0.67 5.36 -0.34 2.72 0 0 Z " fill="#565C5A" transform="translate(469,159)"/>
<path d="M0 0 C1.134375 0.020625 2.26875 0.04125 3.4375 0.0625 C3.7675 0.7225 4.0975 1.3825 4.4375 2.0625 C2.1275 2.3925 -0.1825 2.7225 -2.5625 3.0625 C-2.8925 11.9725 -3.2225 20.8825 -3.5625 30.0625 C-3.8925 30.0625 -4.2225 30.0625 -4.5625 30.0625 C-4.58715746 25.9507744 -4.60533959 21.83907722 -4.61743164 17.72729492 C-4.6224708 16.32754772 -4.62930216 14.9278058 -4.63793945 13.52807617 C-4.6500232 11.52004223 -4.65519807 9.51197043 -4.66015625 7.50390625 C-4.66539307 6.29420166 -4.67062988 5.08449707 -4.67602539 3.83813477 C-4.5058671 -0.32214391 -4.29632565 0.07537413 0 0 Z " fill="#87CBDD" transform="translate(228.5625,114.9375)"/>
<path d="M0 0 C2.31 0.33 4.62 0.66 7 1 C7.33 1.99 7.66 2.98 8 4 C12.8333472 4.08333357 17.23692563 3.95261487 22 3 C20.13548759 5.48382042 19.20480946 5.96964773 16.07421875 6.43359375 C4.57764375 6.44685393 4.57764375 6.44685393 0 2 C0 1.34 0 0.68 0 0 Z " fill="#5AABBE" transform="translate(362,139)"/>
<path d="M0 0 C0.33 0 0.66 0 1 0 C1 3.63 1 7.26 1 11 C3.97 11.33 6.94 11.66 10 12 C10 12.33 10 12.66 10 13 C8.35 13 6.7 13 5 13 C5 14.32 5 15.64 5 17 C3.35 17 1.7 17 0 17 C0 11.39 0 5.78 0 0 Z " fill="#A2A8A6" transform="translate(250,158)"/>
<path d="M0 0 C1.4540625 0.0309375 1.4540625 0.0309375 2.9375 0.0625 C0.9575 1.0525 0.9575 1.0525 -1.0625 2.0625 C-1.0625 3.3825 -1.0625 4.7025 -1.0625 6.0625 C-4.0625 8.0625 -4.0625 8.0625 -7.0625 8.0625 C-7.0625 8.7225 -7.0625 9.3825 -7.0625 10.0625 C-7.7225 9.7325 -8.3825 9.4025 -9.0625 9.0625 C-8.25164873 7.74898079 -7.43876942 6.43671332 -6.625 5.125 C-6.17253906 4.39410156 -5.72007812 3.66320312 -5.25390625 2.91015625 C-3.42241605 0.06984523 -3.42241605 0.06984523 0 0 Z " fill="#49AAC8" transform="translate(252.0625,114.9375)"/>
<path d="M0 0 C1.32 1.32 2.64 2.64 4 4 C3.75 6.25 3.75 6.25 3 8 C3.99 7.67 4.98 7.34 6 7 C5.67 8.65 5.34 10.3 5 12 C6.32 12.33 7.64 12.66 9 13 C1.75 13 1.75 13 -2 12 C-1.01 12 -0.02 12 1 12 C0.67 8.04 0.34 4.08 0 0 Z " fill="#A1A4A3" transform="translate(327,158)"/>
<path d="M0 0 C2.125 0.375 2.125 0.375 4 1 C3.67 2.65 3.34 4.3 3 6 C2.34 6 1.68 6 1 6 C0.67 6.99 0.34 7.98 0 9 C-1.65 9 -3.3 9 -5 9 C-5 8.34 -5 7.68 -5 7 C-4.01 7 -3.02 7 -2 7 C-2.061875 5.824375 -2.061875 5.824375 -2.125 4.625 C-2 2 -2 2 0 0 Z " fill="#4C5350" transform="translate(291,157)"/>
<path d="M0 0 C0.66 0.99 1.32 1.98 2 3 C1.34 3 0.68 3 0 3 C-0.33 4.32 -0.66 5.64 -1 7 C-1.33 6.01 -1.66 5.02 -2 4 C-3.4540625 3.814375 -3.4540625 3.814375 -4.9375 3.625 C-5.948125 3.41875 -6.95875 3.2125 -8 3 C-8.33 2.34 -8.66 1.68 -9 1 C-5.64383395 -0.58485619 -3.50405215 -1.570782 0 0 Z " fill="#239BB5" transform="translate(303,131)"/>
<path d="M0 0 C2.4375 0.9375 2.4375 0.9375 3.75 3 C4.0903125 3.9590625 4.0903125 3.9590625 4.4375 4.9375 C3.4475 4.6075 2.4575 4.2775 1.4375 3.9375 C1.1075 4.5975 0.7775 5.2575 0.4375 5.9375 C-0.2225 5.9375 -0.8825 5.9375 -1.5625 5.9375 C-3.18764468 7.39583358 -3.18764468 7.39583358 -4.5625 8.9375 C-5.89091008 3.50309513 -5.89091008 3.50309513 -4.4375 1 C-2.5625 -0.0625 -2.5625 -0.0625 0 0 Z " fill="#89BFC9" transform="translate(384.5625,98.0625)"/>
<path d="M0 0 C0.99 0.33 1.98 0.66 3 1 C2.67 5.29 2.34 9.58 2 14 C1.01 14 0.02 14 -1 14 C-1.02705729 12.22925083 -1.04642195 10.45838289 -1.0625 8.6875 C-1.07410156 7.70136719 -1.08570313 6.71523437 -1.09765625 5.69921875 C-1 3 -1 3 0 0 Z " fill="#565C5A" transform="translate(476,156)"/>
<path d="M0 0 C0.99 0 1.98 0 3 0 C3.33 4.29 3.66 8.58 4 13 C3.01 12.34 2.02 11.68 1 11 C1 10.34 1 9.68 1 9 C0.34 8.67 -0.32 8.34 -1 8 C-1.04241723 5.66705225 -1.04092937 3.33297433 -1 1 C-0.67 0.67 -0.34 0.34 0 0 Z " fill="#0D97B3" transform="translate(362,122)"/>
<path d="M0 0 C3.3 0 6.6 0 10 0 C11 4 11 4 10 6 C10.66 6.66 11.32 7.32 12 8 C9.69 8 7.38 8 5 8 C5 6.02 5 4.04 5 2 C3.35 1.67 1.7 1.34 0 1 C0 0.67 0 0.34 0 0 Z " fill="#54BBD1" transform="translate(289,115)"/>
<path d="M0 0 C0.99 0.33 1.98 0.66 3 1 C3 1.99 3 2.98 3 4 C2.34 4 1.68 4 1 4 C1 5.32 1 6.64 1 8 C1.66 8 2.32 8 3 8 C3 10.64 3 13.28 3 16 C2.01 16 1.02 16 0 16 C0 10.72 0 5.44 0 0 Z " fill="#525A57" transform="translate(317,154)"/>
<path d="M0 0 C2.97 0 5.94 0 9 0 C9.33 0.66 9.66 1.32 10 2 C8.35 2.33 6.7 2.66 5 3 C4.67 3.99 4.34 4.98 4 6 C2.68 6 1.36 6 0 6 C0 4.02 0 2.04 0 0 Z " fill="#5E6361" transform="translate(264,157)"/>
<path d="M0 0 C1.66611905 -0.042721 3.33382885 -0.04063832 5 0 C6.87824891 1.87824891 6.39102397 5.03935276 6.5625 7.5625 C6.64628906 8.76003906 6.73007812 9.95757812 6.81640625 11.19140625 C6.87699219 12.11824219 6.93757813 13.04507813 7 14 C8.32 13.67 9.64 13.34 11 13 C11 13.66 11 14.32 11 15 C9 16.33333333 7 17.66666667 5 19 C4.67 13.72 4.34 8.44 4 3 C2.68 2.67 1.36 2.34 0 2 C0 1.34 0 0.68 0 0 Z " fill="#58ABC0" transform="translate(335,115)"/>
<path d="M0 0 C0.33 0 0.66 0 1 0 C1.33 1.65 1.66 3.3 2 5 C2.99 5.33 3.98 5.66 5 6 C5 6.66 5 7.32 5 8 C5.66 8.33 6.32 8.66 7 9 C5.02 9 3.04 9 1 9 C0.67 9.66 0.34 10.32 0 11 C0 10.01 0 9.02 0 8 C-0.66 8 -1.32 8 -2 8 C-1.125 1.125 -1.125 1.125 0 0 Z " fill="#505654" transform="translate(253,161)"/>
<path d="M0 0 C4.29 0 8.58 0 13 0 C8.78492722 3.16130459 7.93928888 3.3367697 3 3 C3.66 3.66 4.32 4.32 5 5 C3.02 5 1.04 5 -1 5 C-0.67 3.35 -0.34 1.7 0 0 Z " fill="#949F9C" transform="translate(366,152)"/>
<path d="M0 0 C2.97 0.495 2.97 0.495 6 1 C6 1.99 6 2.98 6 4 C5.34 4 4.68 4 4 4 C4 5.32 4 6.64 4 8 C2.68 8 1.36 8 0 8 C0 5.36 0 2.72 0 0 Z " fill="#4D5150" transform="translate(264,166)"/>
<path d="M0 0 C2.67927341 4.01891012 2.15601248 6.24161923 2 11 C-0.31 11 -2.62 11 -5 11 C-5 8.69 -5 6.38 -5 4 C-3 6 -3 6 -3 9 C-2.01 9 -1.02 9 0 9 C0 6.03 0 3.06 0 0 Z " fill="#58A8BB" transform="translate(308,134)"/>
<path d="M0 0 C0.99 0 1.98 0 3 0 C3 0.66 3 1.32 3 2 C2.34 2 1.68 2 1 2 C1.95865509 4.33075929 1.95865509 4.33075929 5 6 C4.34 6.66 3.68 7.32 3 8 C2.01 8 1.02 8 0 8 C0 8.99 0 9.98 0 11 C-0.66 11 -1.32 11 -2 11 C-2.05399736 9.54207116 -2.09279177 8.08357288 -2.125 6.625 C-2.15980469 5.40683594 -2.15980469 5.40683594 -2.1953125 4.1640625 C-2 2 -2 2 0 0 Z " fill="#505653" transform="translate(380,157)"/>
<path d="M0 0 C2.90100346 1.30044983 4.81312153 2.70898446 7 5 C7.33 5 7.66 5 8 5 C8 8.63 8 12.26 8 16 C7.67 16 7.34 16 7 16 C6.67 13.03 6.34 10.06 6 7 C4.68 7 3.36 7 2 7 C2 5.68 2 4.36 2 3 C1.34 3 0.68 3 0 3 C0 2.01 0 1.02 0 0 Z " fill="#69BFCE" transform="translate(280,117)"/>
<path d="M0 0 C0.99 0.33 1.98 0.66 3 1 C5.33299825 1.03954234 7.66708189 1.04401732 10 1 C10 2.65 10 4.3 10 6 C8.35 6 6.7 6 5 6 C4.67 5.01 4.34 4.02 4 3 C2.68 3.33 1.36 3.66 0 4 C0 3.34 0 2.68 0 2 C-0.66 1.67 -1.32 1.34 -2 1 C-1.34 0.67 -0.68 0.34 0 0 Z " fill="#2CA3BF" transform="translate(264,116)"/>
<path d="M0 0 C0.66 0.33 1.32 0.66 2 1 C1.67 3.31 1.34 5.62 1 8 C-0.65 8.66 -2.3 9.32 -4 10 C-3.38461538 3.47692308 -3.38461538 3.47692308 -1.4375 1.0625 C-0.7259375 0.5365625 -0.7259375 0.5365625 0 0 Z " fill="#1195B4" transform="translate(262,121)"/>
<path d="M0 0 C0.79921875 0.29648438 1.5984375 0.59296875 2.421875 0.8984375 C3.02515625 1.13820313 3.6284375 1.37796875 4.25 1.625 C3.26 1.955 2.27 2.285 1.25 2.625 C1.25 3.285 1.25 3.945 1.25 4.625 C2.24 4.955 3.23 5.285 4.25 5.625 C-0.03559243 5.13800086 -2.43989075 4.36440076 -5.75 1.625 C-6.74 1.295 -7.73 0.965 -8.75 0.625 C-5.33677284 -1.55132374 -3.73452846 -1.42790794 0 0 Z " fill="#9DC9D3" transform="translate(388.75,119.375)"/>
<path d="M0 0 C0.33 0 0.66 0 1 0 C1.05398987 2.27057377 1.09278742 4.54151288 1.125 6.8125 C1.14820313 8.07707031 1.17140625 9.34164062 1.1953125 10.64453125 C1 14 1 14 -1 17 C-3.1640625 17.29296875 -3.1640625 17.29296875 -5.625 17.1875 C-6.85089844 17.14689453 -6.85089844 17.14689453 -8.1015625 17.10546875 C-8.72804688 17.07066406 -9.35453125 17.03585938 -10 17 C-10 16.67 -10 16.34 -10 16 C-7.36 16 -4.72 16 -2 16 C-2.33 14.68 -2.66 13.36 -3 12 C-2.34 11.67 -1.68 11.34 -1 11 C-0.5316735 8.41394668 -0.5316735 8.41394668 -0.375 5.4375 C-0.30023438 4.42558594 -0.22546875 3.41367188 -0.1484375 2.37109375 C-0.09945313 1.58863281 -0.05046875 0.80617187 0 0 Z " fill="#8E9291" transform="translate(472,158)"/>
<path d="M0 0 C0.99 0 1.98 0 3 0 C3 3.96 3 7.92 3 12 C2.01 12 1.02 12 0 12 C0 8.04 0 4.08 0 0 Z " fill="#5C6260" transform="translate(357,158)"/>
<path d="M0 0 C1.32 0 2.64 0 4 0 C4.33 1.98 4.66 3.96 5 6 C4.34 6 3.68 6 3 6 C2.67 5.01 2.34 4.02 2 3 C1.34 2.67 0.68 2.34 0 2 C0 7.28 0 12.56 0 18 C-0.33 18 -0.66 18 -1 18 C-1.77034555 12.10981941 -2.24237456 6.83916045 -1 1 C-0.67 0.67 -0.34 0.34 0 0 Z " fill="#9FA6A6" transform="translate(317,152)"/>
<path d="M0 0 C2.31 0 4.62 0 7 0 C7 3.96 7 7.92 7 12 C6.34 12 5.68 12 5 12 C4.97421875 11.37351563 4.9484375 10.74703125 4.921875 10.1015625 C4.86515625 9.28429687 4.8084375 8.46703125 4.75 7.625 C4.70359375 6.81289062 4.6571875 6.00078125 4.609375 5.1640625 C4.2077908 2.81161073 4.2077908 2.81161073 1.953125 1.7109375 C1.30859375 1.47632813 0.6640625 1.24171875 0 1 C0 0.67 0 0.34 0 0 Z " fill="#575C5A" transform="translate(405,158)"/>
<path d="M0 0 C1.32 0 2.64 0 4 0 C4 2.97 4 5.94 4 9 C2.68 9 1.36 9 0 9 C0 6.03 0 3.06 0 0 Z " fill="#1096B6" transform="translate(353,134)"/>
<path d="M0 0 C3.63 0 7.26 0 11 0 C11 0.33 11 0.66 11 1 C8.69 1.66 6.38 2.32 4 3 C3.34 5.97 2.68 8.94 2 12 C1.67 12 1.34 12 1 12 C0.67 8.04 0.34 4.08 0 0 Z " fill="#2591A8" transform="translate(287,116)"/>
<path d="M0 0 C2 2 2 2 2.1953125 4.3828125 C2.17210937 5.28773438 2.14890625 6.19265625 2.125 7.125 C2.10695313 8.03507813 2.08890625 8.94515625 2.0703125 9.8828125 C2.03550781 10.93082031 2.03550781 10.93082031 2 12 C1.01 12 0.02 12 -1 12 C-1.02687279 10.18757948 -1.04633715 8.37504767 -1.0625 6.5625 C-1.07410156 5.55316406 -1.08570313 4.54382813 -1.09765625 3.50390625 C-1 1 -1 1 0 0 Z " fill="#535856" transform="translate(326,158)"/>
<path d="M0 0 C2.23960447 2.87949147 4.29864224 5.76742026 6 9 C5.67 9.66 5.34 10.32 5 11 C4.34 10.67 3.68 10.34 3 10 C3 9.34 3 8.68 3 8 C2.34 8 1.68 8 1 8 C0.67 8.99 0.34 9.98 0 11 C-1.37432457 7.18243176 -0.67975039 3.92744671 0 0 Z " fill="#3CA4BA" transform="translate(233,117)"/>
<path d="M0 0 C0.66 0 1.32 0 2 0 C2.1953125 2.05078125 2.390625 4.1015625 2.5859375 6.15234375 C2.72257812 6.76207031 2.85921875 7.37179688 3 8 C3.66 8.33 4.32 8.66 5 9 C2 9 2 9 0 8 C0 7.34 0 6.68 0 6 C-0.66 5.67 -1.32 5.34 -2 5 C-1.34 5 -0.68 5 0 5 C0 3.35 0 1.7 0 0 Z M5 5 C6.32 5 7.64 5 9 5 C9 5.66 9 6.32 9 7 C7.68 7.33 6.36 7.66 5 8 C5 7.01 5 6.02 5 5 Z " fill="#999D9C" transform="translate(388,160)"/>
<path d="M0 0 C1.32 0.33 2.64 0.66 4 1 C4 3.31 4 5.62 4 8 C3.01 8.33 2.02 8.66 1 9 C0.08941469 5.92677456 -0.08886184 3.19902639 0 0 Z " fill="#676B6A" transform="translate(455,158)"/>
<path d="M0 0 C1.6396875 0.2475 1.6396875 0.2475 3.3125 0.5 C6.87525873 1.06718184 6.87525873 1.06718184 10 1 C9.67 1.66 9.34 2.32 9 3 C7.35 3 5.7 3 4 3 C4 3.99 4 4.98 4 6 C3.01 6 2.02 6 1 6 C0 5 0 5 -0.0625 2.4375 C-0.041875 1.633125 -0.02125 0.82875 0 0 Z " fill="#909492" transform="translate(222,164)"/>
<path d="M0 0 C0.99 0.33 1.98 0.66 3 1 C3 2.98 3 4.96 3 7 C0 7 0 7 -2.1875 5 C-2.785625 4.34 -3.38375 3.68 -4 3 C-4.33 3.66 -4.66 4.32 -5 5 C-5 4.01 -5 3.02 -5 2 C-3.35 2 -1.7 2 0 2 C0 1.34 0 0.68 0 0 Z " fill="#737876" transform="translate(437,158)"/>
<path d="M0 0 C0.99 0 1.98 0 3 0 C3 3.63 3 7.26 3 11 C2.01 10.67 1.02 10.34 0 10 C0 6.7 0 3.4 0 0 Z " fill="#515453" transform="translate(245,157)"/>
<path d="M0 0 C0.66 0 1.32 0 2 0 C3.28317892 3.84953676 3.06643637 6.94738135 3 11 C2.01 11 1.02 11 0 11 C0 7.37 0 3.74 0 0 Z " fill="#0C99B8" transform="translate(227,132)"/>
<path d="M0 0 C3 3 3 3 3.328125 5.12109375 C3.30234375 5.88550781 3.2765625 6.64992188 3.25 7.4375 C3.22679687 8.58025391 3.22679687 8.58025391 3.203125 9.74609375 C3.00665883 11.92611261 2.59405998 13.89683604 2 16 C1.34 16 0.68 16 0 16 C0 10.72 0 5.44 0 0 Z " fill="#62B0C3" transform="translate(306,118)"/>
<path d="M0 0 C2.31 0.33 4.62 0.66 7 1 C7.02708567 2.60407328 7.04643483 4.2082785 7.0625 5.8125 C7.07410156 6.70582031 7.08570313 7.59914062 7.09765625 8.51953125 C7 11 7 11 6 14 C5.34 13.67 4.68 13.34 4 13 C4.165 11.906875 4.33 10.81375 4.5 9.6875 C5.06718184 6.12474127 5.06718184 6.12474127 5 3 C2.525 2.01 2.525 2.01 0 1 C0 0.67 0 0.34 0 0 Z " fill="#60AFC3" transform="translate(274,122)"/>
<path d="M0 0 C1.35439668 2.70879335 1.06501451 5.00933268 1 8 C1.99 8 2.98 8 4 8 C4 8.99 4 9.98 4 11 C5.32 11.66 6.64 12.32 8 13 C2.375 13.25 2.375 13.25 -1 11 C-1.328125 8.65234375 -1.328125 8.65234375 -1.25 5.9375 C-1.23453125 5.03902344 -1.2190625 4.14054688 -1.203125 3.21484375 C-1 1 -1 1 0 0 Z " fill="#9EA19F" transform="translate(481,158)"/>
<path d="M0 0 C0.7425 0.0825 1.485 0.165 2.25 0.25 C2.25 1.24 2.25 2.23 2.25 3.25 C1.26 2.92 0.27 2.59 -0.75 2.25 C-1.41 2.91 -2.07 3.57 -2.75 4.25 C-1.76 4.58 -0.77 4.91 0.25 5.25 C0.25 5.91 0.25 6.57 0.25 7.25 C-2.6875 6.875 -2.6875 6.875 -5.75 6.25 C-6.08 5.59 -6.41 4.93 -6.75 4.25 C-3.42692308 0.31153846 -3.42692308 0.31153846 0 0 Z " fill="#989C9A" transform="translate(228.75,156.75)"/>
<path d="M0 0 C2.97 0 5.94 0 9 0 C9 0.66 9 1.32 9 2 C9.99 2.33 10.98 2.66 12 3 C8.37 3 4.74 3 1 3 C0.67 2.01 0.34 1.02 0 0 Z " fill="#0F97B6" transform="translate(265,140)"/>
<path d="M0 0 C0.33 0.66 0.66 1.32 1 2 C0.2578125 3.953125 0.2578125 3.953125 -0.875 6.25 C-2.55987707 9.84634106 -3.5910877 13.01310505 -4 17 C-4.33 17 -4.66 17 -5 17 C-5.48761453 11.61456845 -5.79079255 7.38941118 -2.5 2.875 C-1.2625 1.451875 -1.2625 1.451875 0 0 Z " fill="#70C6D2" transform="translate(261,118)"/>
<path d="M0 0 C0.91026797 3.07215439 1.25288404 5.79680216 1 9 C-1 11 -1 11 -4.625 11.125 C-5.73875 11.08375 -6.8525 11.0425 -8 11 C-8 10.67 -8 10.34 -8 10 C-6.02 10 -4.04 10 -2 10 C-2.04125 9.0925 -2.0825 8.185 -2.125 7.25 C-2.00468444 4.1217954 -1.6085292 2.61385994 0 0 Z " fill="#979999" transform="translate(503,160)"/>
<path d="M0 0 C0.66 0.66 1.32 1.32 2 2 C1.46428571 5.53571429 1.46428571 5.53571429 0 7 C-1.99958364 7.04080783 -4.00045254 7.04254356 -6 7 C-6 6.34 -6 5.68 -6 5 C-5.01 5 -4.02 5 -3 5 C-3 4.34 -3 3.68 -3 3 C-1.5 1.375 -1.5 1.375 0 0 Z " fill="#5AA3B4" transform="translate(396,117)"/>
<path d="M0 0 C5.875 2.75 5.875 2.75 7 5 C4.69 5.66 2.38 6.32 0 7 C0 4.69 0 2.38 0 0 Z " fill="#727A78" transform="translate(461,162)"/>
<path d="M0 0 C0.99 0.495 0.99 0.495 2 1 C2 1.99 2 2.98 2 4 C3.98 4.66 5.96 5.32 8 6 C8 6.33 8 6.66 8 7 C5.6739143 7.38063221 3.33944736 7.71269945 1 8 C0 7 0 7 -0.0625 3.4375 C-0.041875 2.303125 -0.02125 1.16875 0 0 Z " fill="#555A58" transform="translate(237,162)"/>
<path d="M0 0 C0.66 0.33 1.32 0.66 2 1 C2 2.32 2 3.64 2 5 C1.195625 5.2475 0.39125 5.495 -0.4375 5.75 C-3.171081 6.72238859 -3.171081 6.72238859 -3.8125 9.125 C-3.874375 9.74375 -3.93625 10.3625 -4 11 C-4.33 8.69 -4.66 6.38 -5 4 C-2 3 -2 3 1 4 C0.67 2.68 0.34 1.36 0 0 Z " fill="#5CB6C9" transform="translate(370,118)"/>
<path d="M0 0 C0.33 0 0.66 0 1 0 C1.33 3.96 1.66 7.92 2 12 C-0.64 12 -3.28 12 -6 12 C-6 11.34 -6 10.68 -6 10 C-4.02 10 -2.04 10 0 10 C0 6.7 0 3.4 0 0 Z " fill="#4797AC" transform="translate(378,106)"/>
<path d="M0 0 C0.33 0 0.66 0 1 0 C1 1.98 1 3.96 1 6 C1.99 6 2.98 6 4 6 C4.33 5.34 4.66 4.68 5 4 C5 4.66 5 5.32 5 6 C5.99 6.33 6.98 6.66 8 7 C7.01 7 6.02 7 5 7 C4.67 7.99 4.34 8.98 4 10 C3.01 9.67 2.02 9.34 1 9 C-0.4783226 6.04335481 -0.06032783 3.25770263 0 0 Z " fill="#8E9190" transform="translate(447,160)"/>
<path d="M0 0 C0.66 0 1.32 0 2 0 C4.04169485 2.90548882 5 4.40142046 5 8 C3.125 7.75 3.125 7.75 1 7 C-0.3125 5.125 -0.3125 5.125 -1 3 C-0.67 2.01 -0.34 1.02 0 0 Z " fill="#0E96B8" transform="translate(260,132)"/>
<path d="M0 0 C0.33 0 0.66 0 1 0 C1 1.65 1 3.3 1 5 C2.65 5 4.3 5 6 5 C6 5.99 6 6.98 6 8 C3.125 8.625 3.125 8.625 0 9 C-0.66 8.34 -1.32 7.68 -2 7 C-1.34 4.69 -0.68 2.38 0 0 Z " fill="#3DA8C6" transform="translate(317,126)"/>
<path d="M0 0 C5.75 0.75 5.75 0.75 8 3 C8.125 5.625 8.125 5.625 8 8 C6 6.6875 6 6.6875 4 5 C4 4.01 4 3.02 4 2 C2.35 2 0.7 2 -1 2 C-0.67 1.34 -0.34 0.68 0 0 Z " fill="#399EB0" transform="translate(324,116)"/>
<path d="M0 0 C1.32 0.33 2.64 0.66 4 1 C4.33 2.65 4.66 4.3 5 6 C1.7 5.34 -1.6 4.68 -5 4 C-3.68 3.67 -2.36 3.34 -1 3 C-0.67 2.01 -0.34 1.02 0 0 Z " fill="#1594B2" transform="translate(300,118)"/>
<path d="M0 0 C1.26026798 2.52053595 0.91874445 3.8542098 0.5625 6.625 C0.46066406 7.44226563 0.35882813 8.25953125 0.25390625 9.1015625 C0.17011719 9.72804687 0.08632813 10.35453125 0 11 C-1.32 11.33 -2.64 11.66 -4 12 C-4 11.01 -4 10.02 -4 9 C-3.34 9 -2.68 9 -2 9 C-2.04125 7.88625 -2.0825 6.7725 -2.125 5.625 C-2 2 -2 2 0 0 Z " fill="#A1A8A6" transform="translate(493,158)"/>
<path d="M0 0 C-1.98 0.99 -1.98 0.99 -4 2 C-3.67 2.99 -3.34 3.98 -3 5 C-5.97 4.505 -5.97 4.505 -9 4 C-9 3.01 -9 2.02 -9 1 C-6.04335481 -0.4783226 -3.25770263 -0.06032783 0 0 Z " fill="#7B8180" transform="translate(339,157)"/>
<path d="M0 0 C2.31 0.66 4.62 1.32 7 2 C2.25 6.875 2.25 6.875 0 8 C0 5.36 0 2.72 0 0 Z " fill="#525755" transform="translate(481,160)"/>
<path d="M0 0 C2.31 0 4.62 0 7 0 C7.66 1.32 8.32 2.64 9 4 C6.625 4.625 6.625 4.625 4 5 C3.34 4.34 2.68 3.68 2 3 C2.66 3 3.32 3 4 3 C4 2.34 4 1.68 4 1 C2.68 0.67 1.36 0.34 0 0 Z " fill="#808585" transform="translate(253,157)"/>
<path d="M0 0 C2.97 0.495 2.97 0.495 6 1 C6 1.99 6 2.98 6 4 C3.36 4 0.72 4 -2 4 C-1.34 2.68 -0.68 1.36 0 0 Z " fill="#575D5B" transform="translate(308,153)"/>
<path d="M0 0 C0.99 0 1.98 0 3 0 C3 1.32 3 2.64 3 4 C2.34 4.66 1.68 5.32 1 6 C1 6.33 1 6.66 1 7 C-0.65 7 -2.3 7 -4 7 C-3.67 6.01 -3.34 5.02 -3 4 C-2.01 4 -1.02 4 0 4 C0 2.68 0 1.36 0 0 Z " fill="#525554" transform="translate(488,163)"/>
<path d="M0 0 C1.65 0.33 3.3 0.66 5 1 C5 2.32 5 3.64 5 5 C3.68 5 2.36 5 1 5 C1 4.34 1 3.68 1 3 C0.34 3 -0.32 3 -1 3 C-0.67 2.01 -0.34 1.02 0 0 Z " fill="#5A605E" transform="translate(498,157)"/>
<path d="M0 0 C0.33 0.66 0.66 1.32 1 2 C-1.95955661 2.98651887 -3.92864836 3 -7 3 C-7.99 3.33 -8.98 3.66 -10 4 C-10 3.34 -10 2.68 -10 2 C-6.3558226 -0.4294516 -4.28758728 -0.16179575 0 0 Z " fill="#99A1A1" transform="translate(232,152)"/>
<path d="M0 0 C0.33 0 0.66 0 1 0 C1 1.98 1 3.96 1 6 C0.34 6 -0.32 6 -1 6 C-1.66 7.32 -2.32 8.64 -3 10 C-3.66 9.67 -4.32 9.34 -5 9 C-5 8.34 -5 7.68 -5 7 C-4.34 6.67 -3.68 6.34 -3 6 C-2.67 5.01 -2.34 4.02 -2 3 C-1.34 3 -0.68 3 0 3 C0 2.01 0 1.02 0 0 Z " fill="#46A1B4" transform="translate(388,132)"/>
<path d="M0 0 C1.98 0.99 1.98 0.99 4 2 C4 3.98 4 5.96 4 8 C3.01 8 2.02 8 1 8 C0.67 5.36 0.34 2.72 0 0 Z " fill="#1096B9" transform="translate(304,135)"/>
<path d="M0 0 C0.99 0.33 1.98 0.66 3 1 C3 3.97 3 6.94 3 10 C2.34 10 1.68 10 1 10 C0.67 6.7 0.34 3.4 0 0 Z " fill="#3A8D9A" transform="translate(386,102)"/>
<path d="M0 0 C0.33 0 0.66 0 1 0 C1 2.64 1 5.28 1 8 C0.01 8 -0.98 8 -2 8 C-2.125 5.125 -2.125 5.125 -2 2 C-1.34 1.34 -0.68 0.68 0 0 Z " fill="#515352" transform="translate(280,162)"/>
<path d="M0 0 C2.29013653 3.4352048 2.17842973 4.985331 2 9 C1.01 9.495 1.01 9.495 0 10 C-1.36952673 7.26094655 -1.12621361 5.02912668 -1 2 C-0.67 1.34 -0.34 0.68 0 0 Z " fill="#919997" transform="translate(301,157)"/>
<path d="M0 0 C1.32 0.33 2.64 0.66 4 1 C3.67 2.65 3.34 4.3 3 6 C0.525 5.01 0.525 5.01 -2 4 C-1.34 2.68 -0.68 1.36 0 0 Z " fill="#6A716E" transform="translate(291,157)"/>
<path d="M0 0 C0.33 0.99 0.66 1.98 1 3 C-0.4375 5.6875 -0.4375 5.6875 -2 8 C-2.66 7.67 -3.32 7.34 -4 7 C-4.625 4.4375 -4.625 4.4375 -5 2 C-3.35 1.34 -1.7 0.68 0 0 Z " fill="#808784" transform="translate(274,158)"/>
<path d="M0 0 C0.99 0 1.98 0 3 0 C3 1.32 3 2.64 3 4 C4.98 4 6.96 4 9 4 C9 4.33 9 4.66 9 5 C6.36 5 3.72 5 1 5 C0.67 3.35 0.34 1.7 0 0 Z " fill="#6A6E6D" transform="translate(403,153)"/>
<path d="M0 0 C2.6875 0.3125 2.6875 0.3125 5 1 C5 1.66 5 2.32 5 3 C2.36 3 -0.28 3 -3 3 C-1.8125 1.4375 -1.8125 1.4375 0 0 Z " fill="#535856" transform="translate(465,171)"/>
<path d="M0 0 C0.33 0 0.66 0 1 0 C1 1.98 1 3.96 1 6 C0.01 6.495 0.01 6.495 -1 7 C-1 6.34 -1 5.68 -1 5 C-2.98 5.33 -4.96 5.66 -7 6 C-5.68 4.68 -4.36 3.36 -3 2 C-3 2.66 -3 3.32 -3 4 C-2.01 4 -1.02 4 0 4 C0 2.68 0 1.36 0 0 Z " fill="#929896" transform="translate(440,161)"/>
<path d="M0 0 C2.475 0.495 2.475 0.495 5 1 C4.67 2.32 4.34 3.64 4 5 C2.68 5 1.36 5 0 5 C0 3.35 0 1.7 0 0 Z " fill="#1494B4" transform="translate(313,138)"/>
<path d="M0 0 C0.99 0 1.98 0 3 0 C3 0.99 3 1.98 3 3 C3.66 3.33 4.32 3.66 5 4 C3.35 4.33 1.7 4.66 0 5 C0 4.34 0 3.68 0 3 C-0.66 3 -1.32 3 -2 3 C-1 1 -1 1 0 0 Z " fill="#23A1C0" transform="translate(315,135)"/>
<path d="M0 0 C-0.33 1.32 -0.66 2.64 -1 4 C-2.65 4 -4.3 4 -6 4 C-6.33 3.34 -6.66 2.68 -7 2 C-2.25 0 -2.25 0 0 0 Z " fill="#1593B6" transform="translate(301,130)"/>
<path d="M0 0 C1.10844919 3.32534757 0.84454356 5.62182575 0 9 C-0.66 9 -1.32 9 -2 9 C-2 6.69 -2 4.38 -2 2 C-1.34 2 -0.68 2 0 2 C0 1.34 0 0.68 0 0 Z " fill="#9FA5A3" transform="translate(461,158)"/>
<path d="M0 0 C0.66 0 1.32 0 2 0 C2.33 1.98 2.66 3.96 3 6 C2.01 6 1.02 6 0 6 C-0.38218767 4.34385343 -0.71395102 2.67542976 -1 1 C-0.67 0.67 -0.34 0.34 0 0 Z " fill="#555B59" transform="translate(429,162)"/>
<path d="M0 0 C0.66 0 1.32 0 2 0 C2.33 0.99 2.66 1.98 3 3 C0.525 4.485 0.525 4.485 -2 6 C-2.33 5.34 -2.66 4.68 -3 4 C-2.67 3.34 -2.34 2.68 -2 2 C-1.34 2 -0.68 2 0 2 C0 1.34 0 0.68 0 0 Z " fill="#41A3BB" transform="translate(329,129)"/>
<path d="M0 0 C1.32 0 2.64 0 4 0 C4 0.66 4 1.32 4 2 C4.66 2.33 5.32 2.66 6 3 C4.02 3 2.04 3 0 3 C-0.33 3.66 -0.66 4.32 -1 5 C-0.67 3.35 -0.34 1.7 0 0 Z " fill="#484D4C" transform="translate(254,167)"/>
<path d="M0 0 C1.32 0 2.64 0 4 0 C4 1.65 4 3.3 4 5 C2.66666667 5 1.33333333 5 0 5 C0 3.35 0 1.7 0 0 Z " fill="#525755" transform="translate(272,161)"/>
<path d="M0 0 C0.99 0.33 1.98 0.66 3 1 C1.25 5.875 1.25 5.875 -1 7 C-1.04254356 5.00045254 -1.04080783 2.99958364 -1 1 C-0.67 0.67 -0.34 0.34 0 0 Z " fill="#60B5C4" transform="translate(244,132)"/>
<path d="M0 0 C2.125 0.375 2.125 0.375 4 1 C3.34 1 2.68 1 2 1 C2 1.66 2 2.32 2 3 C1.34 3 0.68 3 0 3 C-0.66 4.32 -1.32 5.64 -2 7 C-2.125 4.625 -2.125 4.625 -2 2 C-1.34 1.34 -0.68 0.68 0 0 Z " fill="#62B1C8" transform="translate(265,122)"/>
<path d="M0 0 C2 3 2 3 2 5 C0.02 5 -1.96 5 -4 5 C-4 4.34 -4 3.68 -4 3 C-2 1.375 -2 1.375 0 0 Z " fill="#0A98B6" transform="translate(252,119)"/>
<path d="M0 0 C2.31 0.33 4.62 0.66 7 1 C6.67 1.99 6.34 2.98 6 4 C4.02 3.34 2.04 2.68 0 2 C0 1.34 0 0.68 0 0 Z " fill="#3FA0B6" transform="translate(299,116)"/>
</svg>
