<?xml version="1.0" encoding="UTF-8"?>
<svg version="1.1" xmlns="http://www.w3.org/2000/svg" width="1080" height="607">
<path d="M0 0 C13.2 0 26.4 0 40 0 C43.58875 6.5278125 43.58875 6.5278125 47.25 13.1875 C52.78912828 23.24521208 58.39418341 33.25924271 64.11328125 43.21606445 C67.49240444 49.10086366 70.7961221 55.0176914 74 61 C74.69884716 62.2827546 75.39809836 63.56528912 76.09765625 64.84765625 C76.83622028 66.21078432 77.57450284 67.57406494 78.3125 68.9375 C78.66280273 69.5773584 79.01310547 70.2172168 79.37402344 70.87646484 C80.98387227 73.86811384 82.41752553 76.63177807 83 80 C83.66 80 84.32 80 85 80 C85.41572266 78.91138672 85.41572266 78.91138672 85.83984375 77.80078125 C86.9395817 75.14585833 88.1731403 72.70101399 89.5625 70.1875 C90.08972656 69.23230469 90.61695313 68.27710938 91.16015625 67.29296875 C93.65636321 62.82523527 96.16659091 58.36547655 98.6796875 53.90722656 C102.4434101 47.22566851 106.14781673 40.51536825 109.72265625 33.73046875 C113.82349728 25.94831281 118.07706006 18.26515344 122.4375 10.625 C123.23631592 9.22338623 123.23631592 9.22338623 124.05126953 7.79345703 C124.54868652 6.92575684 125.04610352 6.05805664 125.55859375 5.1640625 C126.00517334 4.38498535 126.45175293 3.6059082 126.91186523 2.80322266 C128 1 128 1 129 0 C141.87 0 154.74 0 168 0 C168 50.82 168 101.64 168 154 C157.77 154 147.54 154 137 154 C136.67 120.01 136.34 86.02 136 51 C129.71806001 61.88286732 129.71806001 61.88286732 124 73 C120.86160856 79.40735372 117.45147111 85.5959299 113.87109375 91.765625 C110.48601793 97.61707131 107.2959504 103.57395207 104.109375 109.53515625 C103.78976807 110.13191162 103.47016113 110.72866699 103.14086914 111.34350586 C102.23133347 113.04309147 101.32458019 114.74416521 100.41796875 116.4453125 C99 119 99 119 98 120 C93.42654341 120.42227735 88.84005349 120.46498404 84.25 120.5625 C82.9609375 120.62501953 81.671875 120.68753906 80.34375 120.75195312 C71.09222164 120.91030397 71.09222164 120.91030397 68.13696289 118.44726562 C66.80607068 116.3513081 65.89454894 114.31332279 65 112 C64.33627174 110.74991946 63.65813651 109.50736688 62.96484375 108.2734375 C62.28652955 106.97527871 61.61085946 105.67573573 60.9375 104.375 C53.48662841 90.15220631 45.80204258 76.04850908 37.85351562 62.09741211 C35.77685399 58.44074707 33.88505453 54.77010906 32 51 C31.67 84.99 31.34 118.98 31 154 C20.77 154 10.54 154 0 154 C0 103.18 0 52.36 0 0 Z " fill="#0D96B7" transform="translate(67,275)"/>
<path d="M0 0 C12.09164627 10.07886605 20.21378111 21.42803768 26.453125 35.77636719 C26.91203125 36.80632812 27.3709375 37.83628906 27.84375 38.89746094 C30.86420512 47.24625415 30.82875828 55.60137819 30.890625 64.40136719 C30.90609375 66.24251099 30.90609375 66.24251099 30.921875 68.12084961 C30.72000077 88.97698113 21.74293461 107.73332966 7.453125 122.77636719 C-10.41461895 138.98702198 -31.27144651 145.9243889 -55.23046875 145.16308594 C-62.68113826 144.74004058 -69.49338971 143.14571473 -76.546875 140.77636719 C-77.60003906 140.42574219 -78.65320313 140.07511719 -79.73828125 139.71386719 C-98.25821812 132.75983614 -113.94900088 117.83922468 -122.44042969 100.06494141 C-131.95441059 78.95927176 -132.284183 55.50453345 -124.21899414 33.91503906 C-121.28539948 26.59021717 -117.09626041 20.18883425 -112.546875 13.77636719 C-112.00417969 12.98746094 -111.46148437 12.19855469 -110.90234375 11.38574219 C-110.23138672 10.58910156 -110.23138672 10.58910156 -109.546875 9.77636719 C-108.886875 9.77636719 -108.226875 9.77636719 -107.546875 9.77636719 C-107.33804687 9.21691406 -107.12921875 8.65746094 -106.9140625 8.08105469 C-105.06562562 4.96511823 -102.52083068 3.04911123 -99.671875 0.90136719 C-99.09252197 0.46228027 -98.51316895 0.02319336 -97.91625977 -0.42919922 C-69.55010036 -21.37687304 -28.04700018 -22.1861687 0 0 Z M-85.046875 28.46386719 C-94.53402721 38.73121283 -97.93070167 50.60374238 -97.796875 64.27636719 C-97.80460937 65.0665625 -97.81234375 65.85675781 -97.8203125 66.67089844 C-97.77620177 80.14672537 -93.04302336 92.01113553 -83.66796875 101.81152344 C-72.00128614 112.61878191 -59.19683986 114.6556692 -43.77734375 114.15136719 C-30.70141986 113.40696305 -20.74664126 107.43711706 -11.734375 98.08886719 C-4.84328071 89.6240855 -1.50613858 79.52620986 -0.546875 68.77636719 C-0.47597656 68.03128906 -0.40507812 67.28621094 -0.33203125 66.51855469 C0.30826757 52.6368762 -4.96171874 39.44980469 -13.546875 28.77636719 C-14.206875 28.77636719 -14.866875 28.77636719 -15.546875 28.77636719 C-15.546875 28.11636719 -15.546875 27.45636719 -15.546875 26.77636719 C-35.10913613 9.54799838 -66.18059743 10.8723381 -85.046875 28.46386719 Z " fill="#0C95B7" transform="translate(372.546875,284.2236328125)"/>
<path d="M0 0 C10.23 0 20.46 0 31 0 C31.33 28.71 31.66 57.42 32 87 C35.96 82.545 35.96 82.545 40 78 C42.33346041 76.2092048 44.44711963 74.6751998 46.9375 73.1875 C47.54231201 72.81423584 48.14712402 72.44097168 48.77026367 72.05639648 C61.20573038 64.51156126 72.67290598 62.74021955 87.0625 61.875 C88.41866113 61.78840547 89.77478154 61.70117065 91.13085938 61.61328125 C94.42022898 61.4025743 97.70986427 61.19832003 101 61 C100.99777939 60.25053604 100.99555878 59.50107208 100.99327087 58.72889709 C100.97326821 51.68017709 100.958026 44.63146685 100.94818783 37.58272648 C100.94295998 33.9585404 100.93586413 30.3343777 100.92456055 26.71020508 C100.91372816 23.21540025 100.90772242 19.72061796 100.90512276 16.22579765 C100.90236449 14.23760611 100.89455312 12.24942369 100.88670349 10.26124573 C100.88662796 9.06007614 100.88655243 7.85890656 100.88647461 6.62133789 C100.884254 5.55766495 100.88203339 4.493992 100.87974548 3.39808655 C101 1 101 1 102 0 C111.9 0 121.8 0 132 0 C132 50.82 132 101.64 132 154 C122.1 154 112.2 154 102 154 C100.93217514 150.79652541 100.87941694 148.51812177 100.88647461 145.15161133 C100.88658791 143.35008354 100.88658791 143.35008354 100.88670349 141.51216125 C100.89186478 140.21521835 100.89702606 138.91827545 100.90234375 137.58203125 C100.90420923 136.24110466 100.90563252 134.90017739 100.90663147 133.55924988 C100.91044644 130.03290927 100.92026801 126.50660996 100.93133545 122.98028564 C100.9415715 119.38074299 100.94613379 115.78119365 100.95117188 112.18164062 C100.9618912 105.12107687 100.97895538 98.06054113 101 91 C97.33694454 91.13486841 93.67433477 91.2794993 90.01171875 91.42578125 C88.98332886 91.46352661 87.95493896 91.50127197 86.89538574 91.54016113 C72.73658665 92.11824395 57.32523177 94.19549543 46.4296875 104.28515625 C36.22221762 116.52854225 32.30331007 130.69331848 31.4375 146.375 C31.293125 148.89125 31.14875 151.4075 31 154 C20.77 154 10.54 154 0 154 C0 103.18 0 52.36 0 0 Z " fill="#0C96B7" transform="translate(663,275)"/>
<path d="M0 0 C85.38942308 0 85.38942308 0 97 10 C97.63292969 10.53625 98.26585937 11.0725 98.91796875 11.625 C108.79100908 20.71914376 112.30484926 33.36928021 113.16015625 46.44921875 C113.50916753 57.0864757 111.30164845 66.36902935 105 75 C104.34 75.99 103.68 76.98 103 78 C102.34 78 101.68 78 101 78 C101 78.66 101 79.32 101 80 C99.3203125 81.5078125 99.3203125 81.5078125 97.125 83.125 C96.40570313 83.66382813 95.68640625 84.20265625 94.9453125 84.7578125 C93 86 93 86 91 86 C91 86.66 91 87.32 91 88 C91.825 88.20625 92.65 88.4125 93.5 88.625 C102.74175412 92.25568912 110.09355527 99.79640332 114.12255859 108.83178711 C117.86600248 118.08207235 117.23236395 127.78326462 117.125 137.5625 C117.11495088 139.1594996 117.10582844 140.75650532 117.09765625 142.35351562 C117.07750867 146.23595389 117.03833486 150.11753012 117 154 C107.76 154 98.52 154 89 154 C88.87625 150.6175 88.7525 147.235 88.625 143.75 C87.94476709 128.09546617 86.99608941 114.27950885 75 103 C69.11630589 98.6572734 60.72035546 98.50312048 53.625 99.25 C45.42132482 101.04455395 40.8518487 104.49116166 36.359375 111.29296875 C31.8261587 120.32032189 31.31232611 129.1020155 30.8125 139.0625 C30.4103125 146.4565625 30.4103125 146.4565625 30 154 C20.1 154 10.2 154 0 154 C0 103.18 0 52.36 0 0 Z M30 29 C30 48.8 30 68.6 30 89 C32.64 87.02 35.28 85.04 38 83 C44.11529496 78.60820073 50.51012163 75.982122 57.5625 73.5 C66.86098632 70.21214738 75.14943401 67.09481124 80 58 C82.07314452 51.78056645 81.80499213 45.12287402 79.3125 39.0625 C77.40807144 35.37225781 75.72855587 33.02638906 72 31 C63.34452163 28.30890453 54.32752969 28.77180344 45.375 28.875 C37.764375 28.936875 37.764375 28.936875 30 29 Z " fill="#0C95B7" transform="translate(411,275)"/>
<path d="M0 0 C83.44444444 0 83.44444444 0 98.25 10.25 C109.09037774 21.09037774 112.94201437 35.11070038 113.25 50.125 C112.9176249 64.34326812 108.24308865 75.40300036 98.1484375 85.55078125 C87.92099709 93.50686702 76.10231381 98.09687722 64.19433594 102.875 C48.28825419 109.17458156 48.28825419 109.17458156 35.9375 120.6875 C35.38964844 121.41324219 34.84179688 122.13898438 34.27734375 122.88671875 C31.99919421 126.65576737 31.85330563 130.26068166 31.71875 134.60546875 C31.68136719 135.67087891 31.64398437 136.73628906 31.60546875 137.83398438 C31.53478806 140.08136866 31.46447937 142.32876467 31.39453125 144.57617188 C31.35714844 145.63771484 31.31976562 146.69925781 31.28125 147.79296875 C31.25095703 148.7677417 31.22066406 149.74251465 31.18945312 150.74682617 C31 153 31 153 30 154 C20.1 154 10.2 154 0 154 C0 103.18 0 52.36 0 0 Z M31 29 C31 48.8 31 68.6 31 89 C35.62 86.36 40.24 83.72 45 81 C49.23578366 79.01781182 53.47565351 77.14749196 57.78320312 75.3359375 C66.17506702 71.70413642 76.05990733 66.88018535 80.3125 58.375 C81.71462564 51.49183778 81.86127747 44.51735424 79 38 C78.6596875 36.948125 78.6596875 36.948125 78.3125 35.875 C76.23444894 32.90635563 73.31531204 31.28626861 70 30 C65.06044708 29.14500385 60.32487435 28.88222942 55.31640625 28.90234375 C54.03451416 28.90484131 52.75262207 28.90733887 51.43188477 28.90991211 C49.82498779 28.91901611 48.21809082 28.92812012 46.5625 28.9375 C38.8590625 28.9684375 38.8590625 28.9684375 31 29 Z " fill="#0D96B7" transform="translate(541,275)"/>
<path d="M0 0 C1.23174144 2.45155319 2.29491777 4.8363668 3.3125 7.375 C6.14545731 14.16617959 9.31159156 20.62297149 13 27 C12.35933594 27.36351562 11.71867188 27.72703125 11.05859375 28.1015625 C6.75986573 30.60007804 2.72626133 33.06626901 -1 36.375 C-4 39 -4 39 -6 39 C-6.27070312 39.57363281 -6.54140625 40.14726562 -6.8203125 40.73828125 C-8.01924718 43.03690105 -9.38471801 45.06790204 -10.875 47.1875 C-18.57735772 58.68467787 -21.4520238 70.24319117 -19 84 C-16.70575484 92.07574296 -13.42352921 98.62926287 -8 105 C-7.4225 105.845625 -6.845 106.69125 -6.25 107.5625 C0.9696766 115.38381632 12.07982761 121.56704562 22.80859375 122.23828125 C38.85844627 122.62735801 51.6862865 118.95393882 63.75 107.75 C74.8885529 95.75669004 78.62875879 82.97146099 78.23828125 67.00390625 C78.1039711 63.9190823 77.73571188 61.0086429 77 58 C77.82238159 57.87939209 77.82238159 57.87939209 78.66137695 57.75634766 C88.46894071 56.31366542 98.2628077 54.86947227 108 53 C109.58960007 59.80971203 110.35817066 66.2604317 110.3125 73.25 C110.30686035 74.16531494 110.3012207 75.08062988 110.29541016 76.02368164 C109.91185561 97.62235941 100.89200818 115.8428792 86.1875 131.3125 C69.72883103 146.92516262 49.80552869 154.55739017 27.16186523 154.4921875 C5.11544898 153.86088073 -15.21229329 143.99783017 -30.32421875 128.0234375 C-47.05823848 107.8177913 -52.58846947 86.52501792 -50.76171875 60.62109375 C-48.421051 43.24340891 -39.10006254 28.29973354 -27 16 C-26.23945312 15.2265625 -25.47890625 14.453125 -24.6953125 13.65625 C-20.02428582 9.18431626 -15.1280021 5.62028698 -9.5625 2.375 C-8.95897705 2.01970215 -8.3554541 1.6644043 -7.73364258 1.29833984 C-3.3769681 -1.12565603 -3.3769681 -1.12565603 0 0 Z " fill="#0C95B7" transform="translate(853,275)"/>
<path d="M0 0 C11.54247405 7.71167464 18.22108531 24.65555723 21.15234375 37.73828125 C22.20372512 43.37439238 22.2952712 48.90573804 22.25 54.625 C22.26160156 56.10226563 22.26160156 56.10226563 22.2734375 57.609375 C22.25794201 63.42018345 21.66698601 68.43014993 20 74 C21.10794922 73.94779297 21.10794922 73.94779297 22.23828125 73.89453125 C35.98775337 73.52764572 47.86565465 77.28809901 58.3125 86.375 C64.2743144 92.02844469 69.11161957 97.82815903 71 106 C70.84742413 113.62879341 65.61966242 118.96747899 60.40234375 124.0390625 C50.52039496 132.10530363 38.52919658 135.10755329 26 134 C14.54209801 131.97429357 5.4128374 127.02082816 -2 118 C-3.95934231 115.12846982 -5.81624857 112.27957364 -7 109 C-6.505 107.515 -6.505 107.515 -6 106 C-4.29115995 107.62339805 -2.62553283 109.29319053 -1 111 C-1 111.66 -1 112.32 -1 113 C-0.44183594 113.268125 0.11632812 113.53625 0.69140625 113.8125 C4.06173619 115.54613841 7.24252048 117.57033723 10.46484375 119.5625 C19.91392615 124.92037723 31.3125843 125.34009732 41.71875 122.68359375 C49.98778576 120.20571488 59.77053608 116.73229845 64.25 108.78125 C64.62125 107.89953125 64.62125 107.89953125 65 107 C58.79060676 96.48055733 51.06355349 88.93208054 39.1640625 85.46508789 C36.82602035 84.96260929 34.72244118 84.87055123 32.33203125 84.8671875 C31.43806641 84.86589844 30.54410156 84.86460937 29.62304688 84.86328125 C28.69556641 84.86714844 27.76808594 84.87101562 26.8125 84.875 C25.90435547 84.87113281 24.99621094 84.86726563 24.06054688 84.86328125 C18.2957752 84.87153432 12.71784948 85.264097 7 86 C7.50162282 81.58571916 8.3727103 77.42519779 9.5 73.125 C10.78751066 68.05660438 11.71756535 63.22076174 12 58 C12.05285156 57.04867187 12.10570312 56.09734375 12.16015625 55.1171875 C12.6595506 37.44296995 8.00528651 20.08233135 -3 6 C-3.66 6 -4.32 6 -5 6 C-6.2375 7.2375 -6.2375 7.2375 -7.5 8.5 C-8.325 9.325 -9.15 10.15 -10 11 C-10.66 11 -11.32 11 -12 11 C-12.38091797 11.85464844 -12.38091797 11.85464844 -12.76953125 12.7265625 C-14.14615829 15.27004485 -15.79152332 17.19220563 -17.6875 19.375 C-30.4421151 35.18516717 -34.87301895 54.05924873 -33 74 C-31.05591494 87.80444399 -26.14479482 100.90173679 -19.0390625 112.85546875 C-18.69617188 113.56316406 -18.35328125 114.27085937 -18 115 C-18.33 115.66 -18.66 116.32 -19 117 C-20.19882812 116.23816406 -20.19882812 116.23816406 -21.421875 115.4609375 C-39.12332896 104.36636425 -55.32867833 98.69625935 -76 96 C-76 95.34 -76 94.68 -76 94 C-64.24309342 90.08103114 -50.4498892 93.50575588 -39 97 C-39.19335938 96.40574219 -39.38671875 95.81148438 -39.5859375 95.19921875 C-46.93712084 71.79916486 -45.24906316 49.72426478 -34.40234375 27.765625 C-28.39811746 16.80755715 -14.54554905 -3.63638726 0 0 Z " fill="#0C95B6" transform="translate(942,179)"/>
<path d="M0 0 C1.13598633 0.00483398 1.13598633 0.00483398 2.29492188 0.00976562 C3.47344727 0.02233398 3.47344727 0.02233398 4.67578125 0.03515625 C5.47306641 0.03966797 6.27035156 0.04417969 7.09179688 0.04882812 C9.05732382 0.06059775 11.0228121 0.07853277 12.98828125 0.09765625 C11.99828125 0.42765625 11.00828125 0.75765625 9.98828125 1.09765625 C9.98828125 1.75765625 9.98828125 2.41765625 9.98828125 3.09765625 C4.05218459 3.99081894 -1.08147072 4.06806047 -7.01171875 3.09765625 C-7.01171875 2.43765625 -7.01171875 1.77765625 -7.01171875 1.09765625 C-4.30455633 0.19526878 -2.77395107 -0.02085677 0 0 Z " fill="#189EBD" transform="translate(873.01171875,271.90234375)"/>
<path d="M0 0 C0 0.33 0 0.66 0 1 C-3.63 1 -7.26 1 -11 1 C-11 0.34 -11 -0.32 -11 -1 C-6.74938644 -2.41687119 -4.28148375 -1.19320039 0 0 Z " fill="#1191B2" transform="translate(877,274)"/>
<path d="M0 0 C1.98 1.65 3.96 3.3 6 5 C4.02 5.99 4.02 5.99 2 7 C0.5393715 4.35261084 0 3.10551666 0 0 Z " fill="#0A9BB4" transform="translate(935,285)"/>
<path d="M0 0 C0.66 0 1.32 0 2 0 C3.6875 2.375 3.6875 2.375 5 5 C4.67 5.66 4.34 6.32 4 7 C2 5.1875 2 5.1875 0 3 C0 2.01 0 1.02 0 0 Z " fill="#2098B8" transform="translate(919,289)"/>
</svg>
